<?xml version="1.0" encoding="UTF-8" standalone="no"?>
<!-- Created with Inkscape (http://www.inkscape.org/) -->

<svg
   width="128"
   height="128"
   viewBox="0 0 175.162 175.162"
   version="1.1"
   id="svg1"
   xml:space="preserve"
   sodipodi:docname="logo-srv.svg"
   inkscape:version="1.4.2 (ebf0e940d0, 2025-05-08)"
   inkscape:export-filename="favicon.svg"
   inkscape:export-xdpi="192"
   inkscape:export-ydpi="192"
   xmlns:inkscape="http://www.inkscape.org/namespaces/inkscape"
   xmlns:sodipodi="http://sodipodi.sourceforge.net/DTD/sodipodi-0.dtd"
   xmlns="http://www.w3.org/2000/svg"
   xmlns:svg="http://www.w3.org/2000/svg"
   xmlns:rdf="http://www.w3.org/1999/02/22-rdf-syntax-ns#"
   xmlns:cc="http://creativecommons.org/ns#"
   xmlns:dc="http://purl.org/dc/elements/1.1/"><sodipodi:namedview
     id="namedview1"
     pagecolor="#505050"
     bordercolor="#ffffff"
     borderopacity="1"
     inkscape:showpageshadow="0"
     inkscape:pageopacity="0"
     inkscape:pagecheckerboard="1"
     inkscape:deskcolor="#505050"
     inkscape:zoom="2.093699"
     inkscape:cx="53.016217"
     inkscape:cy="72.598783"
     inkscape:window-width="1680"
     inkscape:window-height="926"
     inkscape:window-x="0"
     inkscape:window-y="32"
     inkscape:window-maximized="1"
     inkscape:current-layer="layer1" /><title
     id="title1">Ansvil Logo</title><defs
     id="defs1" /><g
     id="layer1"
     transform="translate(-13.802802,-48.722462)"><rect
       style="fill:#1a1a1a;fill-opacity:1;stroke:none;stroke-width:0.58619;stroke-linejoin:round;stroke-dasharray:none;paint-order:stroke fill markers"
       id="rect6"
       width="158.74057"
       height="158.74057"
       x="22.013519"
       y="56.933182"
       rx="26.017305"
       ry="26.017305" /><circle
       style="font-variation-settings:'wght' 400;fill:#f9d415;stroke-width:7.31738;stroke-linejoin:round;paint-order:stroke fill markers"
       id="path1-2"
       cx="101.3838"
       cy="136.30347"
       r="31.719391" /><g
       id="g1"
       transform="translate(0.001317,-2.1577094e-4)"><path
         id="path7-3"
         style="fill:#f9d415;fill-opacity:1"
         d="m 174.09891,156.48815 0.0214,11.22291 c 0.0373,19.06529 -0.0352,27.16496 -0.25124,28.36601 -0.16631,0.92456 -0.76654,2.67516 -1.3337,3.88886 -1.95085,4.17473 -6.04905,7.38746 -10.69906,8.38445 -1.57731,0.33819 -5.82654,0.39624 -28.6413,0.39824 h -11.6265 v 12.13166 l 12.64215,-0.0401 c 31.24895,-0.0986 29.34951,0.004 34.43584,-1.90033 3.58188,-1.34136 6.31958,-3.11667 9.20499,-5.96828 3.94182,-3.89568 6.23854,-8.09262 7.457,-13.62573 0.46296,-2.10234 0.55124,-3.92923 0.74837,-15.60892 0.10336,-6.12371 0.12231,-17.70322 0.0829,-27.24878 z" /><path
         id="path11"
         style="fill:#f9d415;fill-opacity:1"
         d="m 16.48358,156.48815 c 0.001,4.16826 0.01286,8.98375 0.03475,14.01862 0.09989,22.96595 0.163427,26.18433 0.558607,28.1602 1.51003,7.55014 5.308642,13.53519 11.070572,17.44243 2.12439,1.44059 6.033441,3.18163 8.804071,3.92094 2.56065,0.68329 2.961913,0.71102 12.436353,0.88736 4.409959,0.0818 19.773229,0.11517 31.811189,0.0962 v -12.27866 h -11.9018 c -30.21798,-0.003 -28.470308,0.0923 -32.206758,-1.75333 -2.55879,-1.2639 -5.586782,-4.23896 -6.828902,-6.7113 -1.73168,-3.44673 -1.645789,-1.95831 -1.820149,-31.88068 -0.02482,-4.25856 -0.04901,-8.29888 -0.07216,-11.9018 z" /><path
         id="path14"
         style="fill:#f9d415;fill-opacity:1"
         d="M 121.56849,51.590333 V 64.04005 l 12.42031,0.03207 27.84749,0.07484 1.64642,0.614735 c 4.8454,1.81156 8.49178,5.723482 10.03621,10.760532 0.46033,1.50076 0.4861,3.065831 0.4517,28.641293 l -0.016,11.95526 h 12.32677 c -0.003,-4.41673 -0.0222,-9.64672 -0.0588,-15.06635 -0.1378,-20.403828 -0.23301,-24.833829 -0.57197,-26.620689 -1.84727,-9.73801 -8.2782,-17.42312 -17.48252,-20.88762 -2.89629,-1.09016 -5.25195,-1.465956 -10.69906,-1.710566 -3.71269,-0.166736 -22.33877,-0.260614 -35.90051,-0.243222 z" /><path
         id="path15"
         style="fill:#f9d415;fill-opacity:1"
         d="m 81.199118,51.611716 c -4.11046,-3.96e-4 -8.854046,0.0094 -13.820842,0.0294 -25.09431,0.10102 -26.005294,0.123876 -28.309874,0.654826 -1.30969,0.30173 -3.373766,0.911512 -4.586456,1.357762 -9.50979,3.4995 -16.157653,11.958376 -17.482523,22.240036 -0.218517,1.695824 -0.334979,24.97085 -0.283313,40.22504 h 11.928528 l 0.03207,-12.21986 0.07216,-27.31828 0.710954,-1.77204 c 2.06269,-5.14433 6.360416,-9.128651 11.209556,-10.391691 1.34413,-0.35009 5.205259,-0.40626 28.750879,-0.40626 H 81.19911 Z" /></g></g><metadata
     id="metadata1"><rdf:RDF><cc:Work
         rdf:about=""><dc:creator><cc:Agent><dc:title>Alessandro Gagliano</dc:title></cc:Agent></dc:creator><dc:title>Ansvil Logo</dc:title><dc:date>2025-05-26</dc:date></cc:Work></rdf:RDF></metadata></svg>
