<?xml version="1.0" encoding="UTF-8" standalone="no"?>
<!-- Created with Inkscape (http://www.inkscape.org/) -->

<svg
   width="128px"
   height="128px"
   viewBox="0 0 175.162 175.162"
   version="1.1"
   id="svg1"
   xml:space="preserve"
   inkscape:version="1.4.2 (ebf0e940d0, 2025-05-08)"
   sodipodi:docname="favicon-src.svg"
   inkscape:export-filename="favicon-test.png"
   inkscape:export-xdpi="384"
   inkscape:export-ydpi="384"
   xmlns:inkscape="http://www.inkscape.org/namespaces/inkscape"
   xmlns:sodipodi="http://sodipodi.sourceforge.net/DTD/sodipodi-0.dtd"
   xmlns="http://www.w3.org/2000/svg"
   xmlns:svg="http://www.w3.org/2000/svg"
   xmlns:rdf="http://www.w3.org/1999/02/22-rdf-syntax-ns#"
   xmlns:cc="http://creativecommons.org/ns#"
   xmlns:dc="http://purl.org/dc/elements/1.1/"><title
     id="title1">Ansvil Logo</title><sodipodi:namedview
     id="namedview1"
     pagecolor="#505050"
     bordercolor="#ffffff"
     borderopacity="1"
     inkscape:showpageshadow="0"
     inkscape:pageopacity="0"
     inkscape:pagecheckerboard="1"
     inkscape:deskcolor="#505050"
     inkscape:document-units="px"
     inkscape:zoom="4.0000001"
     inkscape:cx="61.249998"
     inkscape:cy="65.499998"
     inkscape:window-width="1920"
     inkscape:window-height="964"
     inkscape:window-x="0"
     inkscape:window-y="0"
     inkscape:window-maximized="1"
     inkscape:current-layer="layer1" /><defs
     id="defs1" /><g
     inkscape:label="Livello 1"
     inkscape:groupmode="layer"
     id="layer1"
     transform="translate(-13.802802,-48.722462)"><rect
       style="fill:#121212;fill-opacity:1;stroke:none;stroke-width:0.58619;stroke-linejoin:round;stroke-dasharray:none;paint-order:stroke fill markers"
       id="rect6"
       width="158.74057"
       height="158.74057"
       x="22.013519"
       y="56.933182"
       rx="26.017305"
       ry="26.017305" /><path
       id="path7"
       style="fill:#f9d415;fill-opacity:1"
       d="M 174.09891 156.48815 L 174.12029 167.71106 C 174.15754 186.77635 174.08508 194.87602 173.86905 196.07707 C 173.70274 197.00163 173.10251 198.75223 172.53535 199.96593 C 170.5845 204.14066 166.4863 207.35339 161.83629 208.35038 C 160.25898 208.68857 156.00975 208.74662 133.19499 208.74862 L 121.56849 208.74862 L 121.56849 220.88028 L 134.21064 220.84019 C 165.45959 220.74162 163.56015 220.84461 168.64648 218.93986 C 172.22836 217.5985 174.96606 215.82319 177.85147 212.97158 C 181.79329 209.0759 184.09001 204.87896 185.30847 199.34585 C 185.77143 197.24351 185.85971 195.41662 186.05684 183.73693 C 186.1602 177.61322 186.17915 166.03371 186.13969 156.48815 L 174.09891 156.48815 z " /><path
       id="path11"
       style="fill:#f9d415;fill-opacity:1"
       d="M 16.48358 156.48815 C 16.484597 160.65641 16.496437 165.4719 16.518326 170.50677 C 16.618216 193.47272 16.681753 196.6911 17.076933 198.66697 C 18.586963 206.21711 22.385575 212.20216 28.147505 216.1094 C 30.271895 217.54999 34.180946 219.29103 36.951576 220.03034 C 39.512226 220.71363 39.913489 220.74136 49.387929 220.9177 C 53.797888 220.99948 69.161158 221.03287 81.199118 221.01392 L 81.199118 208.73526 L 69.297318 208.73526 C 39.079338 208.73179 40.82701 208.82752 37.09056 206.98193 C 34.53177 205.71803 31.503778 202.74297 30.261658 200.27063 C 28.529978 196.8239 28.615869 198.31232 28.441509 168.38995 C 28.416694 164.13139 28.392504 160.09107 28.369344 156.48815 L 16.48358 156.48815 z " /><path
       id="path14"
       style="fill:#f9d415;fill-opacity:1"
       d="M 121.56849 51.590333 L 121.56849 64.04005 L 133.9888 64.072123 L 161.83629 64.14696 L 163.48271 64.761695 C 168.32811 66.573255 171.97449 70.485177 173.51892 75.522227 C 173.97925 77.022987 174.00502 78.588058 173.97062 104.16352 L 173.95458 116.11878 L 186.28135 116.11878 C 186.27817 111.70205 186.25915 106.47206 186.22255 101.05243 C 186.08475 80.648602 185.98954 76.218601 185.65058 74.431741 C 183.80331 64.693731 177.37238 57.008621 168.16806 53.544121 C 165.27177 52.453961 162.91611 52.078165 157.469 51.833555 C 153.75631 51.666819 135.13023 51.572941 121.56849 51.590333 z " /><path
       id="path15"
       style="fill:#f9d415;fill-opacity:1"
       d="M 81.199118 51.611716 C 77.088658 51.61132 72.345072 51.621125 67.378276 51.641116 C 42.283966 51.742136 41.372982 51.764992 39.068402 52.295942 C 37.758712 52.597672 35.694636 53.207454 34.481946 53.653704 C 24.972156 57.153204 18.324293 65.61208 16.999423 75.89374 C 16.780906 77.589564 16.664444 100.86459 16.71611 116.11878 L 28.644638 116.11878 L 28.676711 103.89892 L 28.748876 76.58064 L 29.45983 74.8086 C 31.52252 69.66427 35.820246 65.679949 40.669386 64.416909 C 42.013516 64.066819 45.874645 64.010649 69.420265 64.010649 L 81.199118 64.010649 L 81.199118 51.611716 z " /><circle
       style="font-variation-settings:'wght' 400;fill:#f9d415;stroke-width:8.52363;stroke-linejoin:round;paint-order:stroke fill markers"
       id="path1"
       cx="101.3838"
       cy="136.30347"
       r="36.948235" /></g><metadata
     id="metadata1"><rdf:RDF><cc:Work
         rdf:about=""><dc:creator><cc:Agent><dc:title>Alessandro Gagliano</dc:title></cc:Agent></dc:creator><dc:title>Ansvil Logo</dc:title><dc:date>2025-05-26</dc:date></cc:Work></rdf:RDF></metadata></svg>
