<?xml version="1.0" encoding="UTF-8" standalone="no"?>
<!-- Created with Inkscape (http://www.inkscape.org/) -->

<svg
   width="128"
   height="128"
   viewBox="0 0 175.162 175.162"
   version="1.1"
   id="svg1"
   xml:space="preserve"
   xmlns="http://www.w3.org/2000/svg"
   xmlns:svg="http://www.w3.org/2000/svg"
   xmlns:rdf="http://www.w3.org/1999/02/22-rdf-syntax-ns#"
   xmlns:cc="http://creativecommons.org/ns#"
   xmlns:dc="http://purl.org/dc/elements/1.1/"><title
     id="title1">Ansvil Logo</title><defs
     id="defs1" /><g
     id="layer1"
     transform="translate(-13.802802,-48.722462)"><rect
       style="fill:#1a1a1a;fill-opacity:1;stroke:none;stroke-width:0.58619;stroke-linejoin:round;stroke-dasharray:none;paint-order:stroke fill markers"
       id="rect6"
       width="158.74057"
       height="158.74057"
       x="22.013519"
       y="56.933182"
       rx="26.017305"
       ry="26.017305" /><g
       id="g1"
       transform="translate(0.001317,-2.1577094e-4)"><path
         id="path7-3"
         style="fill:#f9d415;fill-opacity:1"
         d="m 174.09891,156.48815 0.0214,11.22291 c 0.0373,19.06529 -0.0352,27.16496 -0.25124,28.36601 -0.16631,0.92456 -0.76654,2.67516 -1.3337,3.88886 -1.95085,4.17473 -6.04905,7.38746 -10.69906,8.38445 -1.57731,0.33819 -5.82654,0.39624 -28.6413,0.39824 h -11.6265 v 12.13166 l 12.64215,-0.0401 c 31.24895,-0.0986 29.34951,0.004 34.43584,-1.90033 3.58188,-1.34136 6.31958,-3.11667 9.20499,-5.96828 3.94182,-3.89568 6.23854,-8.09262 7.457,-13.62573 0.46296,-2.10234 0.55124,-3.92923 0.74837,-15.60892 0.10336,-6.12371 0.12231,-17.70322 0.0829,-27.24878 z" /><path
         id="path11"
         style="fill:#f9d415;fill-opacity:1"
         d="m 16.48358,156.48815 c 0.001,4.16826 0.01286,8.98375 0.03475,14.01862 0.09989,22.96595 0.163427,26.18433 0.558607,28.1602 1.51003,7.55014 5.308642,13.53519 11.070572,17.44243 2.12439,1.44059 6.033441,3.18163 8.804071,3.92094 2.56065,0.68329 2.961913,0.71102 12.436353,0.88736 4.409959,0.0818 19.773229,0.11517 31.811189,0.0962 v -12.27866 h -11.9018 c -30.21798,-0.003 -28.470308,0.0923 -32.206758,-1.75333 -2.55879,-1.2639 -5.586782,-4.23896 -6.828902,-6.7113 -1.73168,-3.44673 -1.645789,-1.95831 -1.820149,-31.88068 -0.02482,-4.25856 -0.04901,-8.29888 -0.07216,-11.9018 z" /><path
         id="path14"
         style="fill:#f9d415;fill-opacity:1"
         d="M 121.56849,51.590333 V 64.04005 l 12.42031,0.03207 27.84749,0.07484 1.64642,0.614735 c 4.8454,1.81156 8.49178,5.723482 10.03621,10.760532 0.46033,1.50076 0.4861,3.065831 0.4517,28.641293 l -0.016,11.95526 h 12.32677 c -0.003,-4.41673 -0.0222,-9.64672 -0.0588,-15.06635 -0.1378,-20.403828 -0.23301,-24.833829 -0.57197,-26.620689 -1.84727,-9.73801 -8.2782,-17.42312 -17.48252,-20.88762 -2.89629,-1.09016 -5.25195,-1.465956 -10.69906,-1.710566 -3.71269,-0.166736 -22.33877,-0.260614 -35.90051,-0.243222 z" /><path
         id="path15"
         style="fill:#f9d415;fill-opacity:1"
         d="m 81.199118,51.611716 c -4.11046,-3.96e-4 -8.854046,0.0094 -13.820842,0.0294 -25.09431,0.10102 -26.005294,0.123876 -28.309874,0.654826 -1.30969,0.30173 -3.373766,0.911512 -4.586456,1.357762 -9.50979,3.4995 -16.157653,11.958376 -17.482523,22.240036 -0.218517,1.695824 -0.334979,24.97085 -0.283313,40.22504 h 11.928528 l 0.03207,-12.21986 0.07216,-27.31828 0.710954,-1.77204 c 2.06269,-5.14433 6.360416,-9.128651 11.209556,-10.391691 1.34413,-0.35009 5.205259,-0.40626 28.750879,-0.40626 H 81.19911 Z" /></g><g
       id="g30"
       transform="matrix(1.8574964,0,0,1.8574964,-276.44151,151.78551)"
       style="fill:#f9d415;fill-opacity:1;stroke-width:0.999954;stroke-dasharray:none"><path
         style="font-variation-settings:'wght' 400;fill:#f9d415;fill-opacity:1;stroke:none;stroke-width:0.999954;stroke-linejoin:round;stroke-dasharray:none;paint-order:stroke fill markers"
         id="path28"
         d="m 176.36916,18.12521 c 3.35003,-8.9342703 6.57994,-17.90993701 9.7715,-26.9033281 3.00962,-8.3949169 5.53668,-16.9684459 8.96182,-25.2100549 0.98537,-2.365042 -2.22888,-1.623701 -5.4922,-1.623701 -0.70773,0 -0.84957,0.750875 -1.01669,1.374585 2.51725,10.489051 5.66435,20.813148 8.79979,31.1300224 2.0434,6.4677819 4.15681,12.9172995 6.44014,19.3051186 1.78129,6.544503 12.31161,1.007222 12.32152,0.924564 0.0636,-0.369203 -11.13823,-3.602808 -11.25854,0.511807 1.03233,-0.01515 2.5531,4.254963 11.36163,-0.560597 0.42097,-0.796602 0.79703,-2.011614 1.14461,-2.585662 0.43394,-0.71665 0.87951,-1.426189 1.31926,-2.139286 3.91936,-5.5542865 8.88858,-10.2063017 14.00809,-14.627939 0.38008,-0.3216215 3.70898,-2.7381914 3.90924,-3.1911448 0.36371,-0.8226795 -3.0143,-1.2887404 -3.14631,-1.3144235 -0.72079,-0.1295493 -1.38902,-0.1742679 -2.08029,-0.2228796 -1.73642,0.00743 -4.0271,-0.2223929 -5.66521,0.5927672 -1.00677,0.5009938 -2.67844,2.4619354 -3.47876,3.2622569 -4.93817,4.7334857 -9.94104,9.4390817 -14.13138,14.8717348 -1.23434,1.679524 -2.82719,3.298325 -3.42238,5.322525 -0.22817,4.188796 9.58685,0.246624 11.19446,0.207142 -1.62161,-3.723939 -11.61745,-0.351717 -11.21987,0.201438 0.68078,-0.01303 10.75731,0.623811 10.96573,-1.740471 -1.44997,-0.994229 -5.86747,-12.5902037 -8.18347,-19.1358207 -3.58604,-10.2225293 -6.71351,-20.6022463 -9.71018,-31.0116693 -0.17439,-0.694452 -0.66521,-1.16034 -1.33702,-1.408031 -0.5792,-0.213545 -8.69752,-0.779757 -8.53931,1.649411 -1.5322,8.571956 -4.08899,16.933911 -6.61022,25.2543672 -3.1687,9.16917498 -6.77156,18.1551419 -11.13048,26.8303418 z" /><path
         style="font-variation-settings:'wght' 400;fill:#f9d415;fill-opacity:1;stroke:none;stroke-width:0.999954;stroke-linejoin:round;stroke-dasharray:none;paint-order:stroke fill markers"
         id="path29"
         d="m 182.3286,3.3559677 c 6.4415,-2.81837386 12.78804,-5.7980984 19.40683,-8.1900056 2.97226,-1.1125158 6.03837,-1.9628313 9.02028,-3.0453238 2.17074,-1.0649823 -4.11239,-0.7040073 -5.48169,-0.8660731 l -0.50914,0.014088 v 0 c -1.13435,-0.1036587 -4.32738,-1.3209572 -5.834,-0.4834168 -1.93888,1.3729943 -4.14036,2.302027 -6.2843,3.2991357 -6.16332,2.8429648 -13.65707,5.46227912 -19.79677,8.3543367 z" /></g></g><metadata
     id="metadata1"><rdf:RDF><cc:Work
         rdf:about=""><dc:creator><cc:Agent><dc:title>Alessandro Gagliano</dc:title></cc:Agent></dc:creator><dc:title>Ansvil Logo</dc:title><dc:date>2025-05-26</dc:date></cc:Work></rdf:RDF></metadata></svg>
