<?xml version="1.0" encoding="UTF-8" standalone="no"?>
<!-- Created with Inkscape (http://www.inkscape.org/) -->

<svg
   width="175.162mm"
   height="175.162mm"
   viewBox="0 0 175.162 175.162"
   version="1.1"
   id="svg1"
   xml:space="preserve"
   inkscape:version="1.4.2 (ebf0e940d0, 2025-05-08)"
   sodipodi:docname="logo.svg"
   inkscape:export-filename="logo-p.svg"
   inkscape:export-xdpi="18.561104"
   inkscape:export-ydpi="18.561104"
   xmlns:inkscape="http://www.inkscape.org/namespaces/inkscape"
   xmlns:sodipodi="http://sodipodi.sourceforge.net/DTD/sodipodi-0.dtd"
   xmlns="http://www.w3.org/2000/svg"
   xmlns:svg="http://www.w3.org/2000/svg"
   xmlns:rdf="http://www.w3.org/1999/02/22-rdf-syntax-ns#"
   xmlns:cc="http://creativecommons.org/ns#"
   xmlns:dc="http://purl.org/dc/elements/1.1/"><title
     id="title1">Ansvil Logo</title><sodipodi:namedview
     id="namedview1"
     pagecolor="#505050"
     bordercolor="#ffffff"
     borderopacity="1"
     inkscape:showpageshadow="0"
     inkscape:pageopacity="0"
     inkscape:pagecheckerboard="1"
     inkscape:deskcolor="#505050"
     inkscape:document-units="mm"
     inkscape:zoom="0.33763328"
     inkscape:cx="130.31891"
     inkscape:cy="663.44171"
     inkscape:window-width="1920"
     inkscape:window-height="964"
     inkscape:window-x="0"
     inkscape:window-y="0"
     inkscape:window-maximized="1"
     inkscape:current-layer="layer1" /><defs
     id="defs1" /><g
     inkscape:label="Livello 1"
     inkscape:groupmode="layer"
     id="layer1"
     transform="translate(-13.802802,-48.722462)"><rect
       style="fill:#121212;stroke:none;stroke-width:0.64683;stroke-linejoin:round;stroke-dasharray:none;paint-order:stroke fill markers;fill-opacity:1"
       id="rect2"
       width="175.162"
       height="175.162"
       x="13.802802"
       y="48.722462"
       rx="28.70875"
       ry="28.70875" /><path
       style="fill:#f9d415;fill-opacity:1;stroke-width:0.762485"
       d="m 116.85992,194.30405 c -0.0966,-0.24966 -0.7215,-1.77028 -1.38854,-3.37916 -0.66704,-1.60888 -3.13803,-7.60057 -5.49106,-13.31488 -2.35304,-5.7143 -5.75701,-13.97559 -7.56439,-18.3584 -5.960841,-14.45488 -8.913191,-21.6632 -9.603861,-23.44829 l -0.6814,-1.76117 -16.105587,0.0463 -16.10557,0.0463 -2.4623,5.85048 -2.46231,5.85047 -8.213181,0.0527 c -4.51726,0.0289 -8.2132,0.0217 -8.2132,-0.0161 0,-0.0932 1.85068,-4.66407 3.731352,-9.21579 0.848147,-2.05271 1.980327,-4.8216 2.515974,-6.15308 0.535635,-1.3315 2.218056,-5.46213 3.738711,-9.17921 2.554179,-6.24342 5.192384,-12.70771 10.127134,-24.8141 1.06285,-2.607506 2.77522,-6.783533 3.80527,-9.28008 1.03005,-2.496536 2.31632,-5.628567 2.85839,-6.960052 l 0.98557,-2.42089 h 9.63421 9.634187 l 4.83056,11.600084 c 2.65683,6.380059 5.41433,13.007248 6.12781,14.727088 0.71349,1.71984 2.67596,6.44057 4.361061,10.49052 1.6851,4.04994 4.46577,10.7679 6.17928,14.9288 6.12461,14.87235 17.39356,42.29449 18.05235,43.92903 0.36894,0.9154 0.71623,1.66207 0.77176,1.65925 0.0556,-0.003 0.40507,-0.79715 0.77676,-1.76522 0.3717,-0.96807 0.88942,-2.25943 1.15048,-2.86969 0.26107,-0.61028 2.84371,-6.82894 5.73922,-13.81924 8.01471,-19.34914 13.34543,-32.08203 13.74588,-32.8333 0.17459,-0.32756 0.79373,-0.35306 8.57491,-0.35306 6.62799,0 8.36585,0.0529 8.28717,0.25219 -0.2524,0.63934 -5.43734,12.95195 -6.0955,14.47489 -0.85479,1.97797 -8.56792,20.39041 -12.29632,29.35327 -1.23034,2.95767 -2.66048,6.35929 -3.85919,9.1792 -1.67127,3.9316 -4.853,11.61879 -6.99318,16.89578 l -0.42954,1.05914 h -8.74359 -8.7436 z M 86.179309,119.0426 c 0,-0.0965 -0.81819,-2.12512 -2.375107,-5.88874 -0.78031,-1.88626 -2.18874,-5.29064 -3.12985,-7.56526 -0.94112,-2.27463 -2.32071,-5.58823 -3.06579,-7.363545 -0.74507,-1.775326 -1.41649,-3.388752 -1.49203,-3.585395 -0.1525,-0.396977 -0.13101,-0.445263 -4.06317,9.13327 -1.34372,3.27323 -3.25932,7.93166 -4.25688,10.35202 -0.99755,2.42039 -1.86378,4.5311 -1.92494,4.69048 -0.0958,0.24953 1.3069,0.28979 10.09829,0.28979 5.61522,0 10.209477,-0.0282 10.209477,-0.0626 z"
       id="path2" /><path
       style="fill:#f9d415;fill-opacity:1"
       d="m 49.38765,220.91851 c -9.47444,-0.17634 -9.87476,-0.20493 -12.43541,-0.88822 -2.77063,-0.73931 -6.67941,-2.48 -8.8038,-3.92059 -5.76193,-3.90724 -9.56106,-9.89297 -11.07109,-17.44311 -0.39518,-1.97587 -0.45905,-5.19403 -0.55894,-28.15998 -0.062,-14.26104 -0.0367,-26.7626 0.0563,-27.78125 l 0.1691,-1.85208 5.73602,0.0856 c 3.15481,0.0471 5.75109,0.10663 5.76949,0.13229 0.0184,0.0257 0.10493,12.31009 0.19227,27.29874 0.17436,29.92237 0.0893,28.43355 1.82098,31.88028 1.24212,2.47234 4.26901,5.44772 6.8278,6.71162 3.73645,1.84559 1.98917,1.75044 32.20715,1.75391 l 27.31824,0.003 v 6.08542 c 0,4.68648 -0.076,6.08777 -0.33073,6.09566 -4.25645,0.13188 -39.7926,0.13076 -46.8974,-0.001 z m 56.84396,-3.61332 c 0.0956,-1.99258 0.17375,-4.7326 0.17375,-6.08894 v -2.46606 l 26.78906,-0.002 c 22.81476,-0.002 27.06383,-0.0609 28.64114,-0.39909 4.65001,-0.99699 8.74956,-4.20896 10.70041,-8.38369 0.56716,-1.2137 1.16726,-2.96319 1.33357,-3.88775 0.21603,-1.20105 0.28748,-9.30013 0.25023,-28.36542 l -0.0521,-26.6844 5.88702,-0.0851 c 3.8819,-0.0562 5.9142,0.008 5.96681,0.1873 0.2317,0.79118 0.32862,31.18555 0.13586,42.60578 -0.19713,11.67969 -0.2847,13.50807 -0.74766,15.61041 -1.21846,5.53311 -3.51559,9.73037 -7.45741,13.62605 -2.88541,2.85161 -5.62393,4.6271 -9.20581,5.96846 -5.08633,1.90475 -3.18621,1.79998 -34.43516,1.89855 l -28.15343,0.0888 z M 16.8847,129.03318 C 16.58463,125.17846 16.68479,78.32703 16.9983,75.894 18.32317,65.61234 24.97297,57.1541 34.48276,53.6546 c 1.21269,-0.44625 3.27645,-1.05825 4.58614,-1.35998 2.30458,-0.53095 3.21611,-0.55198 28.31042,-0.653 14.26104,-0.0574 26.6733,-0.0266 27.58281,0.0685 l 1.65365,0.17294 v 6.06436 6.06435 h -27.1965 c -23.54562,0 -27.40491,0.0543 -28.74904,0.40439 -4.84914,1.26304 -9.14698,5.24721 -11.20967,10.39154 l -0.71042,1.77178 -0.0733,27.31823 -0.0733,27.31823 h -5.77449 -5.77449 z m 157.08527,-24.87084 c 0.0344,-25.57546 0.01,-27.14038 -0.45033,-28.64114 -1.54443,-5.03705 -5.19223,-8.94674 -10.03763,-10.7583 l -1.64645,-0.61556 -27.84739,-0.0748 -27.8474,-0.0748 V 57.9524 51.90705 l 0.82683,-0.16536 c 1.25692,-0.25139 44.61718,-0.1731 50.50234,0.0912 5.44711,0.24461 7.80097,0.62117 10.69726,1.71133 9.20432,3.4645 15.63698,11.14913 17.48425,20.88714 0.33896,1.78686 0.43412,6.21593 0.57192,26.61976 0.0909,13.46195 0.0765,25.75619 -0.032,27.32054 l -0.19732,2.84427 h -6.03024 -6.03023 z"
       id="path3"
       sodipodi:nodetypes="csssssccssssccsscccsccsssscccssssscccssssscccsssccccccscscccccsssssscccs" /></g><metadata
     id="metadata1"><rdf:RDF><cc:Work
         rdf:about=""><dc:creator><cc:Agent><dc:title>Alessandro Gagliano</dc:title></cc:Agent></dc:creator><dc:title>Ansvil Logo</dc:title><dc:date>2025-05-26</dc:date></cc:Work></rdf:RDF></metadata></svg>
