<?xml version="1.0" encoding="UTF-8" standalone="no"?>
<!-- Created with Inkscape (http://www.inkscape.org/) -->

<svg
   width="175.162mm"
   height="175.162mm"
   viewBox="0 0 175.162 175.162"
   version="1.1"
   id="svg1"
   xml:space="preserve"
   inkscape:version="1.4.2 (ebf0e940d0, 2025-05-08)"
   sodipodi:docname="logo.svg"
   inkscape:export-filename="logo-p.svg"
   inkscape:export-xdpi="18.561104"
   inkscape:export-ydpi="18.561104"
   xmlns:inkscape="http://www.inkscape.org/namespaces/inkscape"
   xmlns:sodipodi="http://sodipodi.sourceforge.net/DTD/sodipodi-0.dtd"
   xmlns="http://www.w3.org/2000/svg"
   xmlns:svg="http://www.w3.org/2000/svg"
   xmlns:rdf="http://www.w3.org/1999/02/22-rdf-syntax-ns#"
   xmlns:cc="http://creativecommons.org/ns#"
   xmlns:dc="http://purl.org/dc/elements/1.1/"><title
     id="title1">Ansvil Logo</title><sodipodi:namedview
     id="namedview1"
     pagecolor="#505050"
     bordercolor="#ffffff"
     borderopacity="1"
     inkscape:showpageshadow="0"
     inkscape:pageopacity="0"
     inkscape:pagecheckerboard="1"
     inkscape:deskcolor="#505050"
     inkscape:document-units="mm"
     inkscape:zoom="0.33763328"
     inkscape:cx="-260.63781"
     inkscape:cy="189.55477"
     inkscape:window-width="1920"
     inkscape:window-height="964"
     inkscape:window-x="0"
     inkscape:window-y="0"
     inkscape:window-maximized="1"
     inkscape:current-layer="layer1" /><defs
     id="defs1" /><g
     inkscape:label="Livello 1"
     inkscape:groupmode="layer"
     id="layer1"
     transform="translate(-13.802802,-48.722462)"><path
       style="fill:#f9d415;fill-opacity:1;stroke-width:2.21747;stroke-linejoin:round;paint-order:stroke fill markers"
       id="path73"
       d="m -107.36503,208.31995 c 7.20711,-11.76457 12.962595,-24.31076 18.609015,-36.8726 4.44869,-9.83834 8.33035,-19.91812 12.52068,-29.86345 0.17518,-0.21421 0.80246,-0.63839 0.52567,-0.64289 -2.23647,-0.0364 -4.59134,-0.23557 -6.68827,0.54286 -0.67477,0.2505 -0.3084,1.40609 -0.45817,2.1101 -0.99139,4.65975 -1.6816,9.31878 -2.3271,14.03943 -1.50014,13.38059 -2.12035,26.8525 -2.34644,40.3104 -0.16387,4.70321 0.10843,9.40447 0.11198,14.10658 0.4309,-0.29608 -0.20002,0.6292 0.009,0.62546 2.66846,-0.0479 5.37777,0.16941 7.99995,-0.32783 0.40753,-0.0772 0.10644,-0.82437 0.20401,-1.22755 0.4719,-1.9522 1.05627,-3.41118 1.742,-5.36464 1.6452,-3.46331 2.82709,-7.12303 4.39458,-10.61821 1.11599,-2.48842 2.35799,-4.91859 3.56906,-7.36218 1.295668,-2.61428 2.509178,-5.27416 3.950848,-7.81086 1.51671,-2.66877 3.2762,-5.19203 4.91431,-7.78805 0,0 -0.17562,-0.0111 -0.17562,-0.0111 v 0 c -1.80302,2.58672 -3.5411,5.21997 -5.40912,7.76017 -1.92379,2.61604 -3.975148,5.13582 -5.962738,7.70374 -1.74388,2.42788 -3.48098,4.86069 -5.2317,7.28366 -5.64918,7.81836 -3.03576,3.74615 -7.10391,10.55937 -1.47624,2.9845 -1.51076,2.76581 -2.43294,5.4782 -0.12595,0.37054 -0.70247,1.05159 -0.31903,1.12991 10.69639,2.18439 8.25542,2.72552 7.59522,-0.0978 -0.80537,-4.62431 -0.6275,-9.37035 -0.92802,-14.03648 -0.10333,-13.42843 0.50244,-26.87386 1.95446,-40.22663 0.61639,-4.70916 1.2572,-9.3487 2.33334,-13.97645 0.1652,-0.7103 1.17326,-1.78079 0.52917,-2.12281 -6.13911,-3.25982 -5.98165,-2.82519 -6.51779,-0.26264 -3.59248,10.039 -6.87981,20.19772 -11.40006,29.87982 -5.67834,12.63775 -11.600515,25.21795 -19.296805,36.78177 z" /><path
       style="fill:#f9d415;fill-opacity:1;stroke-width:2.21747;stroke-linejoin:round;paint-order:stroke fill markers"
       id="path74"
       d="m -117.78355,195.55641 c 19.658075,-7.68811 39.943385,-13.60581 60.167673,-19.58595 9.03626,-3.05124 18.58884,-4.75525 27.41231,-8.46429 7.47219,-3.14098 -2.91644,0.77004 3.8537,-1.72173 0,0 -0.17474,-0.0222 -0.17474,-0.0222 v 0 c -3.55137,1.1029 -7.22867,1.69002 -10.83953,2.58541 -8.28687,2.05489 -16.42627,4.61715 -24.6037,7.06198 -20.150498,6.0635 -40.472593,11.7706 -60.011413,19.64897 z" /><g
       id="g4"
       transform="translate(30.562005,134.00264)"><path
         style="fill:#f9d415;fill-opacity:1;stroke-width:2.21747;stroke-linejoin:round;paint-order:stroke fill markers"
         id="path77"
         d="m -217.0748,73.925496 c 7.20711,-11.76457 12.96261,-24.31076 18.60903,-36.8726 4.44869,-9.83834 8.33035,-19.91812 12.52068,-29.86345 0.17518,-0.21421 0.80246,-0.63839 0.52567,-0.64289 -2.23647,-0.0364 -4.59134,-0.23557 -6.68827,0.54286 -0.67477,0.2505 -0.3084,1.40609 -0.45817,2.1101 -0.99139,4.65975 -1.6816,9.31878 -2.3271,14.03943 -1.50014,13.38059 -2.12035,26.8525 -2.34644,40.3104 -0.16387,4.70321 0.10843,9.40447 0.11198,14.10658 0.4309,-0.29608 -0.20002,0.6292 0.009,0.62546 2.66846,-0.0479 5.37777,0.16941 7.99995,-0.32783 0.40753,-0.0772 0.10644,-0.82437 0.20401,-1.22755 0.4719,-1.9522 1.05627,-3.41118 1.742,-5.36464 1.6452,-3.46331 2.82709,-7.12303 4.39458,-10.61821 1.11599,-2.48842 2.35799,-4.91859 3.56906,-7.36218 1.29567,-2.61428 2.50918,-5.27416 3.95085,-7.81086 1.51671,-2.66877 3.2762,-5.19203 4.91431,-7.78805 0,0 -0.17562,-0.0111 -0.17562,-0.0111 v 0 c -1.80302,2.58672 -3.5411,5.21997 -5.40912,7.76017 -1.92379,2.61604 -3.97515,5.13582 -5.96274,7.70374 -1.74388,2.42788 -3.48098,4.86069 -5.2317,7.28366 -5.64918,7.81836 -3.03576,3.74615 -7.10391,10.55937 -1.47624,2.9845 -1.51076,2.76581 -2.43294,5.4782 -0.12595,0.37054 -0.70247,1.05159 -0.31903,1.12991 10.69639,2.18439 8.25542,2.72552 7.59522,-0.0978 -0.80537,-4.62431 -0.6275,-9.37035 -0.92802,-14.03648 -0.10333,-13.42843 0.50244,-26.87386 1.95446,-40.22663 0.61639,-4.70916 1.2572,-9.3487 2.33334,-13.97645 0.1652,-0.7103 1.17326,-1.78079 0.52917,-2.12281 -6.13911,-3.25982 -5.98165,-2.82519 -6.51779,-0.26264 -3.59248,10.039 -6.87981,20.19772 -11.40006,29.87982 -5.67835,12.63775 -11.60053,25.21795 -19.29682,36.78177 z" /><path
         style="fill:#f9d415;fill-opacity:1;stroke-width:1;stroke-linejoin:round;paint-order:stroke fill markers"
         id="path78"
         d="m -212.18332,34.043516 c -1.49131,2.89796 -2.45956,6.07681 -3.18482,9.24579 -0.61095,2.66954 -1.38391,5.84741 -0.49949,8.609 0.37603,1.17416 1.33624,2.07237 2.00436,3.10855 1.34779,0.45745 2.62007,1.37199 4.04339,1.37236 3.24473,7.9e-4 6.52032,-0.4679 9.63746,-1.36885 2.77799,-0.80293 5.33593,-2.2627 7.85286,-3.68642 8.36273,-4.73042 15.40293,-11.28473 22.57702,-17.57401 0,0 -0.0791,-0.007 -0.0791,-0.007 v 0 c -2.43474,2.01895 -4.76863,4.1661 -7.3042,6.05684 -4.80981,3.58661 -12.52721,8.46521 -17.89509,11.21354 -2.64263,1.353 -5.42745,2.40841 -8.15312,3.5852 -1.08877,0.47006 -2.10411,1.32168 -3.28954,1.35504 -1.36932,0.0385 -2.62998,-0.76764 -3.94497,-1.15146 -0.68984,-0.9776 -1.67522,-1.80316 -2.06951,-2.93281 -0.9527,-2.72946 -0.16718,-5.85236 0.4898,-8.48471 0.79161,-3.17175 2.07221,-6.14529 3.26503,-9.17393 z" /></g><g
       id="g10"
       transform="translate(291.5145,-76.796825)"><rect
         style="fill:#121212;fill-opacity:1;stroke:none;stroke-width:0.64683;stroke-linejoin:round;stroke-dasharray:none;paint-order:stroke fill markers"
         id="rect1"
         width="175.162"
         height="175.162"
         x="-277.7117"
         y="125.51929"
         rx="28.70875"
         ry="28.70875" /><path
         style="fill:#f9d415;fill-opacity:1;stroke-width:0.762485"
         d="m -174.65459,271.10088 c -0.0966,-0.24966 -0.7215,-1.77028 -1.38854,-3.37916 -0.66704,-1.60888 -3.13803,-7.60057 -5.49106,-13.31488 -2.35304,-5.7143 -5.75701,-13.97559 -7.56439,-18.3584 -5.96084,-14.45488 -8.91319,-21.6632 -9.60386,-23.44829 l -0.6814,-1.76117 -16.10559,0.0463 -16.10557,0.0463 -2.4623,5.85048 -2.46231,5.85047 -8.21318,0.0527 c -4.51726,0.0289 -8.2132,0.0217 -8.2132,-0.0161 0,-0.0932 1.85068,-4.66407 3.73135,-9.21579 0.84815,-2.05271 1.98033,-4.8216 2.51598,-6.15308 0.53563,-1.3315 2.21805,-5.46213 3.73871,-9.17921 2.55418,-6.24342 5.19238,-12.70771 10.12713,-24.8141 1.06285,-2.6075 2.77522,-6.78353 3.80527,-9.28008 1.03005,-2.49653 2.31632,-5.62856 2.85839,-6.96005 l 0.98557,-2.42089 h 9.63421 9.63419 l 4.83056,11.60009 c 2.65683,6.38005 5.41433,13.00724 6.12781,14.72708 0.71349,1.71984 2.67596,6.44057 4.36106,10.49052 1.6851,4.04994 4.46577,10.7679 6.17928,14.9288 6.12461,14.87235 17.39356,42.29449 18.05235,43.92903 0.36894,0.9154 0.71623,1.66207 0.77176,1.65925 0.0556,-0.003 0.40507,-0.79715 0.77676,-1.76522 0.3717,-0.96807 0.88942,-2.25943 1.15048,-2.86969 0.26107,-0.61028 2.84371,-6.82894 5.73922,-13.81924 8.01471,-19.34914 13.34543,-32.08203 13.74588,-32.8333 0.17459,-0.32756 0.79373,-0.35306 8.57491,-0.35306 6.62799,0 8.36585,0.0529 8.28717,0.25219 -0.2524,0.63934 -5.43734,12.95195 -6.0955,14.47489 -0.85479,1.97797 -8.56792,20.39041 -12.29632,29.35327 -1.23034,2.95767 -2.66048,6.35929 -3.85919,9.1792 -1.67127,3.9316 -4.853,11.61879 -6.99318,16.89578 l -0.42954,1.05914 h -8.74359 -8.7436 z m -30.68061,-75.26145 c 0,-0.0965 -0.81819,-2.12512 -2.37511,-5.88874 -0.78031,-1.88626 -2.18874,-5.29064 -3.12985,-7.56526 -0.94112,-2.27463 -2.32071,-5.58823 -3.06579,-7.36354 -0.74507,-1.77533 -1.41649,-3.38875 -1.49203,-3.5854 -0.1525,-0.39697 -0.13101,-0.44526 -4.06317,9.13327 -1.34372,3.27323 -3.25932,7.93166 -4.25688,10.35202 -0.99755,2.42039 -1.86378,4.5311 -1.92494,4.69048 -0.0958,0.24953 1.3069,0.28979 10.09829,0.28979 5.61522,0 10.20948,-0.0282 10.20948,-0.0626 z"
         id="path1" /><path
         style="fill:#f9d415;fill-opacity:1"
         d="m -242.12686,297.71534 c -9.47444,-0.17634 -9.87476,-0.20493 -12.43541,-0.88822 -2.77063,-0.73931 -6.67941,-2.48 -8.8038,-3.92059 -5.76193,-3.90724 -9.56106,-9.89297 -11.07109,-17.44311 -0.39518,-1.97587 -0.45905,-5.19403 -0.55894,-28.15998 -0.062,-14.26104 -0.0367,-26.7626 0.0563,-27.78125 l 0.1691,-1.85208 5.73602,0.0856 c 3.15481,0.0471 5.75109,0.10663 5.76949,0.13229 0.0184,0.0257 0.10493,12.31009 0.19227,27.29874 0.17436,29.92237 0.0893,28.43355 1.82098,31.88028 1.24212,2.47234 4.26901,5.44772 6.8278,6.71162 3.73645,1.84559 1.98917,1.75044 32.20715,1.75391 l 27.31824,0.003 v 6.08542 c 0,4.68648 -0.076,6.08777 -0.33073,6.09566 -4.25645,0.13188 -39.7926,0.13076 -46.8974,-0.001 z m 56.84396,-3.61332 c 0.0956,-1.99258 0.17375,-4.7326 0.17375,-6.08894 v -2.46606 l 26.78906,-0.002 c 22.81476,-0.002 27.06383,-0.0609 28.64114,-0.39909 4.65001,-0.99699 8.74956,-4.20896 10.70041,-8.38369 0.56716,-1.2137 1.16726,-2.96319 1.33357,-3.88775 0.21603,-1.20105 0.28748,-9.30013 0.25023,-28.36542 l -0.0521,-26.6844 5.88702,-0.0851 c 3.8819,-0.0562 5.9142,0.008 5.96681,0.1873 0.2317,0.79118 0.32862,31.18555 0.13586,42.60578 -0.19713,11.67969 -0.2847,13.50807 -0.74766,15.61041 -1.21846,5.53311 -3.51559,9.73037 -7.45741,13.62605 -2.88541,2.85161 -5.62393,4.6271 -9.20581,5.96846 -5.08633,1.90475 -3.18621,1.79998 -34.43516,1.89855 l -28.15343,0.0888 z m -89.34691,-88.27201 c -0.30007,-3.85472 -0.19991,-50.70615 0.1136,-53.13918 1.32487,-10.28166 7.97467,-18.7399 17.48446,-22.2394 1.21269,-0.44625 3.27645,-1.05825 4.58614,-1.35998 2.30458,-0.53095 3.21611,-0.55198 28.31042,-0.653 14.26104,-0.0574 26.6733,-0.0266 27.58281,0.0685 l 1.65365,0.17294 v 6.06436 6.06435 h -27.1965 c -23.54562,0 -27.40491,0.0543 -28.74904,0.40439 -4.84914,1.26304 -9.14698,5.24721 -11.20967,10.39154 l -0.71042,1.77178 -0.0733,27.31823 -0.0733,27.31823 h -5.77449 -5.77449 z m 157.08527,-24.87084 c 0.0344,-25.57546 0.01,-27.14038 -0.45033,-28.64114 -1.54443,-5.03705 -5.19223,-8.94674 -10.03763,-10.7583 l -1.64645,-0.61556 -27.84739,-0.0748 -27.8474,-0.0748 v -6.04534 -6.04535 l 0.82683,-0.16536 c 1.25692,-0.25139 44.61718,-0.1731 50.50234,0.0912 5.44711,0.24461 7.80097,0.62117 10.69726,1.71133 9.20432,3.4645 15.63698,11.14913 17.48425,20.88714 0.33896,1.78686 0.43412,6.21593 0.57192,26.61976 0.0909,13.46195 0.0765,25.75619 -0.032,27.32054 l -0.19732,2.84427 h -6.03024 -6.03023 z"
         id="path4"
         sodipodi:nodetypes="csssssccssssccsscccsccsssscccssssscccssssscccsssccccccscscccccsssssscccs" /></g><rect
       style="fill:#121212;fill-opacity:1;stroke:none;stroke-width:0.64683;stroke-linejoin:round;stroke-dasharray:none;paint-order:stroke fill markers"
       id="rect6"
       width="175.162"
       height="175.162"
       x="-391.33966"
       y="47.155178"
       rx="28.70875"
       ry="28.70875" /><path
       style="fill:#f9d415;fill-opacity:1"
       d="m -355.75482,219.35123 c -9.47444,-0.17634 -9.87476,-0.20493 -12.43541,-0.88822 -2.77063,-0.73931 -6.67941,-2.48 -8.8038,-3.92059 -5.76193,-3.90724 -9.56106,-9.89297 -11.07109,-17.44311 -0.39518,-1.97587 -0.45905,-5.19403 -0.55894,-28.15998 -0.062,-14.26104 -0.0367,-26.7626 0.0563,-27.78125 l 0.1691,-1.85208 5.73602,0.0856 c 3.15481,0.0471 5.75109,0.10663 5.76949,0.13229 0.0184,0.0257 0.10493,12.31009 0.19227,27.29874 0.17436,29.92237 0.0893,28.43355 1.82098,31.88028 1.24212,2.47234 4.26901,5.44772 6.8278,6.71162 3.73645,1.84559 1.98917,1.75044 32.20715,1.75391 l 27.31824,0.003 v 6.08542 c 0,4.68648 -0.076,6.08777 -0.33073,6.09566 -4.25645,0.13188 -39.7926,0.13076 -46.8974,-0.001 z m 56.84396,-3.61332 c 0.0956,-1.99258 0.17375,-4.7326 0.17375,-6.08894 v -2.46606 l 26.78906,-0.002 c 22.81476,-0.002 27.06383,-0.0609 28.64114,-0.39909 4.65001,-0.99699 8.74956,-4.20896 10.70041,-8.38369 0.56716,-1.2137 1.16726,-2.96319 1.33357,-3.88775 0.21603,-1.20105 0.28748,-9.30013 0.25023,-28.36542 l -0.0521,-26.6844 5.88702,-0.0851 c 3.8819,-0.0562 5.9142,0.008 5.96681,0.1873 0.2317,0.79118 0.32862,31.18555 0.13586,42.60578 -0.19713,11.67969 -0.2847,13.50807 -0.74766,15.61041 -1.21846,5.53311 -3.51559,9.73037 -7.45741,13.62605 -2.88541,2.85161 -5.62393,4.6271 -9.20581,5.96846 -5.08633,1.90475 -3.18621,1.79998 -34.43516,1.89855 l -28.15343,0.0888 z m -89.34691,-88.27201 c -0.30007,-3.85472 -0.19991,-50.706153 0.1136,-53.139183 1.32487,-10.28166 7.97467,-18.7399 17.48446,-22.2394 1.21269,-0.44625 3.27645,-1.05825 4.58614,-1.35998 2.30458,-0.53095 3.21611,-0.55198 28.31042,-0.653 14.26104,-0.0574 26.6733,-0.0266 27.58281,0.0685 l 1.65365,0.17294 v 6.06436 6.06435 h -27.1965 c -23.54562,0 -27.40491,0.0543 -28.74904,0.40439 -4.84914,1.26304 -9.14698,5.24721 -11.20967,10.39154 l -0.71042,1.77178 -0.0733,27.318233 -0.0733,27.31823 h -5.77449 -5.77449 z m 157.08527,-24.87084 c 0.0344,-25.575463 0.01,-27.140383 -0.45033,-28.641143 -1.54443,-5.03705 -5.19223,-8.94674 -10.03763,-10.7583 l -1.64645,-0.61556 -27.84739,-0.0748 -27.8474,-0.0748 v -6.04534 -6.04535 l 0.82683,-0.16536 c 1.25692,-0.25139 44.61718,-0.1731 50.50234,0.0912 5.44711,0.24461 7.80097,0.62117 10.69726,1.71133 9.20432,3.4645 15.63698,11.14913 17.48425,20.88714 0.33896,1.78686 0.43412,6.21593 0.57192,26.61976 0.0909,13.461953 0.0765,25.756193 -0.032,27.320543 l -0.19732,2.84427 h -6.03024 -6.03023 z"
       id="path7"
       sodipodi:nodetypes="csssssccssssccsscccsccsssscccssssscccssssscccsssccccccscscccccsssssscccs" /><g
       id="g9"
       transform="matrix(1.6512136,0,0,1.6512136,20.260433,65.030749)"><path
         style="fill:#f9d415;fill-opacity:1;stroke-width:2.21747;stroke-linejoin:round;paint-order:stroke fill markers"
         id="path8"
         d="m -217.0748,73.925496 c 7.20711,-11.76457 12.96261,-24.31076 18.60903,-36.8726 4.44869,-9.83834 8.33035,-19.91812 12.52068,-29.86345 0.17518,-0.21421 0.80246,-0.63839 0.52567,-0.64289 -2.23647,-0.0364 -4.59134,-0.23557 -6.68827,0.54286 -0.67477,0.2505 -0.3084,1.40609 -0.45817,2.1101 -0.99139,4.65975 -1.6816,9.31878 -2.3271,14.03943 -1.50014,13.38059 -2.12035,26.8525 -2.34644,40.3104 -0.16387,4.70321 0.10843,9.40447 0.11198,14.10658 0.4309,-0.29608 -0.20002,0.6292 0.009,0.62546 2.66846,-0.0479 5.37777,0.16941 7.99995,-0.32783 0.40753,-0.0772 0.10644,-0.82437 0.20401,-1.22755 0.4719,-1.9522 1.05627,-3.41118 1.742,-5.36464 1.6452,-3.46331 2.82709,-7.12303 4.39458,-10.61821 1.11599,-2.48842 2.35799,-4.91859 3.56906,-7.36218 1.29567,-2.61428 2.50918,-5.27416 3.95085,-7.81086 1.51671,-2.66877 3.2762,-5.19203 4.91431,-7.78805 0,0 -0.17562,-0.0111 -0.17562,-0.0111 v 0 c -1.80302,2.58672 -3.5411,5.21997 -5.40912,7.76017 -1.92379,2.61604 -3.97515,5.13582 -5.96274,7.70374 -1.74388,2.42788 -3.48098,4.86069 -5.2317,7.28366 -5.64918,7.81836 -3.03576,3.74615 -7.10391,10.55937 -1.47624,2.9845 -1.51076,2.76581 -2.43294,5.4782 -0.12595,0.37054 -0.70247,1.05159 -0.31903,1.12991 10.69639,2.18439 8.25542,2.72552 7.59522,-0.0978 -0.80537,-4.62431 -0.6275,-9.37035 -0.92802,-14.03648 -0.10333,-13.42843 0.50244,-26.87386 1.95446,-40.22663 0.61639,-4.70916 1.2572,-9.3487 2.33334,-13.97645 0.1652,-0.7103 1.17326,-1.78079 0.52917,-2.12281 -6.13911,-3.25982 -5.98165,-2.82519 -6.51779,-0.26264 -3.59248,10.039 -6.87981,20.19772 -11.40006,29.87982 -5.67835,12.63775 -11.60053,25.21795 -19.29682,36.78177 z" /><path
         style="fill:#f9d415;fill-opacity:1;stroke-width:1;stroke-linejoin:round;paint-order:stroke fill markers"
         id="path9"
         d="m -212.18332,34.043516 c -1.49131,2.89796 -2.45956,6.07681 -3.18482,9.24579 -0.61095,2.66954 -1.38391,5.84741 -0.49949,8.609 0.37603,1.17416 1.33624,2.07237 2.00436,3.10855 1.34779,0.45745 2.62007,1.37199 4.04339,1.37236 3.24473,7.9e-4 6.52032,-0.4679 9.63746,-1.36885 2.77799,-0.80293 5.33593,-2.2627 7.85286,-3.68642 8.36273,-4.73042 15.40293,-11.28473 22.57702,-17.57401 0,0 -0.0791,-0.007 -0.0791,-0.007 v 0 c -2.43474,2.01895 -4.76863,4.1661 -7.3042,6.05684 -4.80981,3.58661 -12.52721,8.46521 -17.89509,11.21354 -2.64263,1.353 -5.42745,2.40841 -8.15312,3.5852 -1.08877,0.47006 -2.10411,1.32168 -3.28954,1.35504 -1.36932,0.0385 -2.62998,-0.76764 -3.94497,-1.15146 -0.68984,-0.9776 -1.67522,-1.80316 -2.06951,-2.93281 -0.9527,-2.72946 -0.16718,-5.85236 0.4898,-8.48471 0.79161,-3.17175 2.07221,-6.14529 3.26503,-9.17393 z" /></g></g><metadata
     id="metadata1"><rdf:RDF><cc:Work
         rdf:about=""><dc:creator><cc:Agent><dc:title>Alessandro Gagliano</dc:title></cc:Agent></dc:creator><dc:title>Ansvil Logo</dc:title><dc:date>2025-05-26</dc:date></cc:Work></rdf:RDF></metadata></svg>
