<?xml version="1.0" encoding="UTF-8" standalone="no"?>
<!-- Created with Inkscape (http://www.inkscape.org/) -->

<svg
   width="175.162mm"
   height="175.162mm"
   viewBox="0 0 175.162 175.162"
   version="1.1"
   id="svg1"
   xml:space="preserve"
   inkscape:version="1.4.2 (ebf0e940d0, 2025-05-08)"
   sodipodi:docname="logo.svg"
   inkscape:export-filename="logo-p.svg"
   inkscape:export-xdpi="18.561104"
   inkscape:export-ydpi="18.561104"
   xmlns:inkscape="http://www.inkscape.org/namespaces/inkscape"
   xmlns:sodipodi="http://sodipodi.sourceforge.net/DTD/sodipodi-0.dtd"
   xmlns="http://www.w3.org/2000/svg"
   xmlns:svg="http://www.w3.org/2000/svg"
   xmlns:rdf="http://www.w3.org/1999/02/22-rdf-syntax-ns#"
   xmlns:cc="http://creativecommons.org/ns#"
   xmlns:dc="http://purl.org/dc/elements/1.1/"><title
     id="title1">Ansvil Logo</title><sodipodi:namedview
     id="namedview1"
     pagecolor="#505050"
     bordercolor="#ffffff"
     borderopacity="1"
     inkscape:showpageshadow="0"
     inkscape:pageopacity="0"
     inkscape:pagecheckerboard="1"
     inkscape:deskcolor="#505050"
     inkscape:document-units="mm"
     inkscape:zoom="0.1767767"
     inkscape:cx="79.19596"
     inkscape:cy="22.627417"
     inkscape:window-width="1920"
     inkscape:window-height="964"
     inkscape:window-x="0"
     inkscape:window-y="0"
     inkscape:window-maximized="1"
     inkscape:current-layer="layer1" /><defs
     id="defs1" /><g
     inkscape:label="Livello 1"
     inkscape:groupmode="layer"
     id="layer1"
     transform="translate(-13.802802,-48.722462)"><g
       id="g31"
       transform="translate(-182.85992,-0.80846757)"><rect
         style="fill:#121212;fill-opacity:1;stroke:none;stroke-width:0.64683;stroke-linejoin:round;stroke-dasharray:none;paint-order:stroke fill markers"
         id="rect6"
         width="175.162"
         height="175.162"
         x="196.66272"
         y="49.53093"
         rx="28.70875"
         ry="28.70875" /><path
         style="fill:#f9d415;fill-opacity:1"
         d="m 232.24757,221.72698 c -9.47444,-0.17634 -9.87476,-0.20493 -12.43541,-0.88822 -2.77063,-0.73931 -6.67941,-2.48 -8.8038,-3.92059 -5.76193,-3.90724 -9.56106,-9.89297 -11.07109,-17.44311 -0.39518,-1.97587 -0.45905,-5.19403 -0.55894,-28.15998 -0.062,-14.26104 -0.0367,-26.7626 0.0563,-27.78125 l 0.1691,-1.85208 5.73602,0.0856 c 3.15481,0.0471 5.75109,0.10663 5.76949,0.13229 0.0184,0.0257 0.10493,12.31009 0.19227,27.29874 0.17436,29.92237 0.0893,28.43355 1.82098,31.88028 1.24212,2.47234 4.26901,5.44772 6.8278,6.71162 3.73645,1.84559 1.98917,1.75044 32.20715,1.75391 l 27.31824,0.003 v 6.08542 c 0,4.68648 -0.076,6.08777 -0.33073,6.09566 -4.25645,0.13188 -39.7926,0.13076 -46.8974,-0.001 z m 56.84396,-3.61332 c 0.0956,-1.99258 0.17375,-4.7326 0.17375,-6.08894 v -2.46606 l 26.78906,-0.002 c 22.81476,-0.002 27.06383,-0.0609 28.64114,-0.39909 4.65001,-0.99699 8.74956,-4.20896 10.70041,-8.38369 0.56716,-1.2137 1.16726,-2.96319 1.33357,-3.88775 0.21603,-1.20105 0.28748,-9.30013 0.25023,-28.36542 l -0.0521,-26.6844 5.88702,-0.0851 c 3.8819,-0.0562 5.9142,0.008 5.96681,0.1873 0.2317,0.79118 0.32862,31.18555 0.13586,42.60578 -0.19713,11.67969 -0.2847,13.50807 -0.74766,15.61041 -1.21846,5.53311 -3.51559,9.73037 -7.45741,13.62605 -2.88541,2.85161 -5.62393,4.6271 -9.20581,5.96846 -5.08633,1.90475 -3.18621,1.79998 -34.43516,1.89855 l -28.15343,0.0888 z m -89.34691,-88.27201 c -0.30007,-3.85472 -0.19991,-50.70615 0.1136,-53.13918 1.32487,-10.28166 7.97467,-18.7399 17.48446,-22.2394 1.21269,-0.44625 3.27645,-1.05825 4.58614,-1.35998 2.30458,-0.53095 3.21611,-0.55198 28.31042,-0.653 14.26104,-0.0574 26.6733,-0.0266 27.58281,0.0685 l 1.65365,0.17294 v 6.06436 6.06435 h -27.1965 c -23.54562,0 -27.40491,0.0543 -28.74904,0.40439 -4.84914,1.26304 -9.14698,5.24721 -11.20967,10.39154 l -0.71042,1.77178 -0.0733,27.31824 -0.0733,27.31822 h -5.77449 -5.77449 z m 157.08527,-24.87083 c 0.0344,-25.57547 0.01,-27.14039 -0.45033,-28.64115 -1.54443,-5.03705 -5.19223,-8.94674 -10.03763,-10.7583 l -1.64645,-0.61556 -27.84739,-0.0748 -27.8474,-0.0748 v -6.04534 -6.04535 l 0.82683,-0.16536 c 1.25692,-0.25139 44.61718,-0.1731 50.50234,0.0912 5.44711,0.24461 7.80097,0.62117 10.69726,1.71133 9.20432,3.4645 15.63698,11.14913 17.48425,20.88714 0.33896,1.78686 0.43412,6.21593 0.57192,26.61976 0.0909,13.46196 0.0765,25.75619 -0.032,27.32054 l -0.19732,2.84427 h -6.03024 -6.03023 z"
         id="path7"
         sodipodi:nodetypes="csssssccssssccsscccsccsssscccssssscccssssscccsssccccccscscccccsssssscccs" /><g
         id="g30"
         transform="matrix(1.648076,0,0,1.648076,-50.984291,150.84848)"
         style="fill:#f9d415;fill-opacity:1;stroke-width:0.999954;stroke-dasharray:none"><path
           style="font-variation-settings:'wght' 400;fill:#f9d415;fill-opacity:1;stroke:none;stroke-width:0.999954;stroke-linejoin:round;stroke-dasharray:none;paint-order:stroke fill markers"
           id="path28"
           d="m 176.36916,18.12521 c 3.35003,-8.9342703 6.57994,-17.90993701 9.7715,-26.9033281 3.00962,-8.3949169 5.53668,-16.9684459 8.96182,-25.2100549 0.98537,-2.365042 -2.22888,-1.623701 -5.4922,-1.623701 -0.70773,0 -0.84957,0.750875 -1.01669,1.374585 2.51725,10.489051 5.66435,20.813148 8.79979,31.1300224 2.0434,6.4677819 4.15681,12.9172995 6.44014,19.3051186 1.78129,6.544503 12.31161,1.007222 12.32152,0.924564 0.0636,-0.369203 -11.13823,-3.602808 -11.25854,0.511807 1.03233,-0.01515 2.5531,4.254963 11.36163,-0.560597 0.42097,-0.796602 0.79703,-2.011614 1.14461,-2.585662 0.43394,-0.71665 0.87951,-1.426189 1.31926,-2.139286 3.91936,-5.5542865 8.88858,-10.2063017 14.00809,-14.627939 0.38008,-0.3216215 3.70898,-2.7381914 3.90924,-3.1911448 0.36371,-0.8226795 -3.0143,-1.2887404 -3.14631,-1.3144235 -0.72079,-0.1295493 -1.38902,-0.1742679 -2.08029,-0.2228796 -1.73642,0.00743 -4.0271,-0.2223929 -5.66521,0.5927672 -1.00677,0.5009938 -2.67844,2.4619354 -3.47876,3.2622569 -4.93817,4.7334857 -9.94104,9.4390817 -14.13138,14.8717348 -1.23434,1.679524 -2.82719,3.298325 -3.42238,5.322525 -0.22817,4.188796 9.58685,0.246624 11.19446,0.207142 -1.62161,-3.723939 -11.61745,-0.351717 -11.21987,0.201438 0.68078,-0.01303 10.75731,0.623811 10.96573,-1.740471 -1.44997,-0.994229 -5.86747,-12.5902037 -8.18347,-19.1358207 -3.58604,-10.2225293 -6.71351,-20.6022463 -9.71018,-31.0116693 -0.17439,-0.694452 -0.66521,-1.16034 -1.33702,-1.408031 -0.5792,-0.213545 -8.69752,-0.779757 -8.53931,1.649411 -1.5322,8.571956 -4.08899,16.933911 -6.61022,25.2543672 -3.1687,9.16917498 -6.77156,18.1551419 -11.13048,26.8303418 z"
           sodipodi:nodetypes="cccsccccccsccsccsccccccccscccc" /><path
           style="font-variation-settings:'wght' 400;fill:#f9d415;fill-opacity:1;stroke:none;stroke-width:0.999954;stroke-linejoin:round;stroke-dasharray:none;paint-order:stroke fill markers"
           id="path29"
           d="m 182.3286,3.3559677 c 6.4415,-2.81837386 12.78804,-5.7980984 19.40683,-8.1900056 2.97226,-1.1125158 6.03837,-1.9628313 9.02028,-3.0453238 2.17074,-1.0649823 -4.11239,-0.7040073 -5.48169,-0.8660731 l -0.50914,0.014088 v 0 c -1.13435,-0.1036587 -4.32738,-1.3209572 -5.834,-0.4834168 -1.93888,1.3729943 -4.14036,2.302027 -6.2843,3.2991357 -6.16332,2.8429648 -13.65707,5.46227912 -19.79677,8.3543367 z"
           sodipodi:nodetypes="cccccscccc" /></g></g></g><metadata
     id="metadata1"><rdf:RDF><cc:Work
         rdf:about=""><dc:creator><cc:Agent><dc:title>Alessandro Gagliano</dc:title></cc:Agent></dc:creator><dc:title>Ansvil Logo</dc:title><dc:date>2025-05-26</dc:date></cc:Work></rdf:RDF></metadata></svg>
