<?xml version="1.0" encoding="UTF-8" standalone="no"?>
<!-- Created with Inkscape (http://www.inkscape.org/) -->

<svg
   width="128"
   height="128"
   viewBox="0 0 175.162 175.162"
   version="1.1"
   id="svg1"
   xml:space="preserve"
   sodipodi:docname="logo-srv.svg"
   inkscape:version="1.4.2 (ebf0e940d0, 2025-05-08)"
   inkscape:export-filename="logo.svg"
   inkscape:export-xdpi="96"
   inkscape:export-ydpi="96"
   xmlns:inkscape="http://www.inkscape.org/namespaces/inkscape"
   xmlns:sodipodi="http://sodipodi.sourceforge.net/DTD/sodipodi-0.dtd"
   xmlns="http://www.w3.org/2000/svg"
   xmlns:svg="http://www.w3.org/2000/svg"
   xmlns:rdf="http://www.w3.org/1999/02/22-rdf-syntax-ns#"
   xmlns:cc="http://creativecommons.org/ns#"
   xmlns:dc="http://purl.org/dc/elements/1.1/"><sodipodi:namedview
     id="namedview1"
     pagecolor="#505050"
     bordercolor="#ffffff"
     borderopacity="1"
     inkscape:showpageshadow="0"
     inkscape:pageopacity="0"
     inkscape:pagecheckerboard="1"
     inkscape:deskcolor="#505050"
     inkscape:zoom="2.093699"
     inkscape:cx="52.777405"
     inkscape:cy="72.12116"
     inkscape:window-width="1920"
     inkscape:window-height="956"
     inkscape:window-x="0"
     inkscape:window-y="32"
     inkscape:window-maximized="1"
     inkscape:current-layer="layer1" /><title
     id="title1">Ansvil Logo</title><defs
     id="defs1" /><g
     id="layer1"
     transform="translate(-13.802802,-48.722462)"><rect
       style="fill:#1a1a1a;fill-opacity:1;stroke:none;stroke-width:0.58619;stroke-linejoin:round;stroke-dasharray:none;paint-order:stroke fill markers"
       id="rect6"
       width="158.74057"
       height="158.74057"
       x="22.013519"
       y="56.933182"
       rx="26.017305"
       ry="26.017305" /><circle
       style="font-variation-settings:'wght' 400;fill:#f9d415;stroke-width:7.31738;stroke-linejoin:round;paint-order:stroke fill markers"
       id="path1-2"
       cx="101.3838"
       cy="136.30347"
       r="31.719391" /><g
       id="g1"
       transform="translate(0.001317,-2.1577094e-4)"><path
         id="path7-3"
         style="fill:#f9d415;fill-opacity:1"
         d="m 174.09891,156.48815 0.0214,11.22291 c 0.0373,19.06529 -0.0352,27.16496 -0.25124,28.36601 -0.16631,0.92456 -0.76654,2.67516 -1.3337,3.88886 -1.95085,4.17473 -6.04905,7.38746 -10.69906,8.38445 -1.57731,0.33819 -5.82654,0.39624 -28.6413,0.39824 h -11.6265 v 12.13166 l 12.64215,-0.0401 c 31.24895,-0.0986 29.34951,0.004 34.43584,-1.90033 3.58188,-1.34136 6.31958,-3.11667 9.20499,-5.96828 3.94182,-3.89568 6.23854,-8.09262 7.457,-13.62573 0.46296,-2.10234 0.55124,-3.92923 0.74837,-15.60892 0.10336,-6.12371 0.12231,-17.70322 0.0829,-27.24878 z" /><path
         id="path11"
         style="fill:#f9d415;fill-opacity:1"
         d="m 16.48358,156.48815 c 0.001,4.16826 0.01286,8.98375 0.03475,14.01862 0.09989,22.96595 0.163427,26.18433 0.558607,28.1602 1.51003,7.55014 5.308642,13.53519 11.070572,17.44243 2.12439,1.44059 6.033441,3.18163 8.804071,3.92094 2.56065,0.68329 2.961913,0.71102 12.436353,0.88736 4.409959,0.0818 19.773229,0.11517 31.811189,0.0962 v -12.27866 h -11.9018 c -30.21798,-0.003 -28.470308,0.0923 -32.206758,-1.75333 -2.55879,-1.2639 -5.586782,-4.23896 -6.828902,-6.7113 -1.73168,-3.44673 -1.645789,-1.95831 -1.820149,-31.88068 -0.02482,-4.25856 -0.04901,-8.29888 -0.07216,-11.9018 z" /><path
         id="path14"
         style="fill:#f9d415;fill-opacity:1"
         d="M 121.56849,51.590333 V 64.04005 l 12.42031,0.03207 27.84749,0.07484 1.64642,0.614735 c 4.8454,1.81156 8.49178,5.723482 10.03621,10.760532 0.46033,1.50076 0.4861,3.065831 0.4517,28.641293 l -0.016,11.95526 h 12.32677 c -0.003,-4.41673 -0.0222,-9.64672 -0.0588,-15.06635 -0.1378,-20.403828 -0.23301,-24.833829 -0.57197,-26.620689 -1.84727,-9.73801 -8.2782,-17.42312 -17.48252,-20.88762 -2.89629,-1.09016 -5.25195,-1.465956 -10.69906,-1.710566 -3.71269,-0.166736 -22.33877,-0.260614 -35.90051,-0.243222 z" /><path
         id="path15"
         style="fill:#f9d415;fill-opacity:1"
         d="m 81.199118,51.611716 c -4.11046,-3.96e-4 -8.854046,0.0094 -13.820842,0.0294 -25.09431,0.10102 -26.005294,0.123876 -28.309874,0.654826 -1.30969,0.30173 -3.373766,0.911512 -4.586456,1.357762 -9.50979,3.4995 -16.157653,11.958376 -17.482523,22.240036 -0.218517,1.695824 -0.334979,24.97085 -0.283313,40.22504 h 11.928528 l 0.03207,-12.21986 0.07216,-27.31828 0.710954,-1.77204 c 2.06269,-5.14433 6.360416,-9.128651 11.209556,-10.391691 1.34413,-0.35009 5.205259,-0.40626 28.750879,-0.40626 H 81.19911 Z" /></g><g
       id="g25"
       transform="translate(12.819018,-220.55491)"><rect
         style="fill:#1a1a1a;fill-opacity:1;stroke:none;stroke-width:0.58619;stroke-linejoin:round;stroke-dasharray:none;paint-order:stroke fill markers"
         id="rect2"
         width="158.74057"
         height="158.74057"
         x="-201.67621"
         y="269.53085"
         rx="26.017305"
         ry="26.017305" /><g
         id="g10"
         transform="translate(-229.30748,222.68187)"><g
           id="g9"><path
             style="font-variation-settings:'wght' 400;fill:#f9d415;fill-opacity:1;stroke:none;stroke-width:1.85741;stroke-linejoin:round;stroke-dasharray:none;paint-order:stroke fill markers"
             id="path8"
             d="m 63.681509,175.36883 c 6.222669,-16.59538 12.222215,-33.26763 18.150526,-49.97284 5.590358,-15.59352 10.284363,-31.518819 16.646549,-46.82758 1.830316,-4.393072 -4.140137,-3.016017 -10.201742,-3.016017 -1.314606,0 -1.578073,1.394738 -1.888498,2.553278 4.675783,19.483372 10.52151,38.660349 16.345576,57.823919 3.79561,12.01388 7.72126,23.99384 11.96254,35.85919 3.30874,12.15639 22.86877,1.87091 22.88718,1.71737 0.11813,-0.68579 -20.68922,-6.69221 -20.9127,0.95068 1.91755,-0.0281 4.74237,7.90358 21.10419,-1.04131 2.77504,-5.15192 2.70466,-5.53423 4.57663,-8.77658 5.52547,-11.18881 6.52829,-13.58576 19.53185,-31.82792 -7.17418,1.05634 -11.44172,2.98973 -14.48243,5.31598 -7.10598,5.43632 -15.4818,15.54811 -24.71032,25.34241 -2.29278,3.11972 -5.25149,6.12663 -6.35706,9.88658 -0.42382,7.78066 17.80754,0.45809 20.79367,0.38476 -3.01213,-6.91721 -21.57937,-0.65332 -20.84086,0.37417 1.26454,-0.0241 19.98166,1.15873 20.3688,-3.23291 -2.69331,-1.84678 -10.8988,-23.38627 -15.20077,-35.54474 -6.66105,-18.98831 -12.47032,-38.268586 -18.03662,-57.604065 -0.32393,-1.289938 -1.23563,-2.155327 -2.48351,-2.61541 -1.075862,-0.39665 -16.155613,-1.448383 -15.861738,3.063773 -2.846056,15.922385 -7.595284,31.454692 -12.27846,46.909902 -5.885849,17.03172 -12.578148,33.72312 -20.674826,49.83728 z"
             sodipodi:nodetypes="cccsccccccccscccccccscccc" /><path
             style="font-variation-settings:'wght' 400;fill:#f9d415;fill-opacity:1;stroke:none;stroke-width:1.85741;stroke-linejoin:round;stroke-dasharray:none;paint-order:stroke fill markers"
             id="path9"
             d="m 72.875689,139.46903 c 11.965063,-5.23513 23.753738,-10.76995 36.048121,-15.21291 5.52096,-2.06651 11.21625,-3.64595 16.75513,-5.65669 4.03215,-1.9782 -7.63875,-1.30768 -10.18222,-1.60873 l -0.94572,0.0262 v 0 c -2.10705,-0.19255 -8.03809,-2.45368 -10.83664,-0.89796 -3.60146,2.55035 -7.690699,4.27602 -11.67306,6.12814 -11.448345,5.28079 -25.367959,10.14617 -36.772429,15.51816 z" /></g></g><g
         id="g24"
         transform="translate(-223.68841,212.59746)"><path
           id="path10"
           style="fill:#f9d415;fill-opacity:1"
           d="m 174.09891,156.48815 0.0214,11.22291 c 0.0373,19.06529 -0.0352,27.16496 -0.25124,28.36601 -0.16631,0.92456 -0.76654,2.67516 -1.3337,3.88886 -1.95085,4.17473 -6.04905,7.38746 -10.69906,8.38445 -1.57731,0.33819 -5.82654,0.39624 -28.6413,0.39824 h -11.6265 v 12.13166 l 12.64215,-0.0401 c 31.24895,-0.0986 29.34951,0.004 34.43584,-1.90033 3.58188,-1.34136 6.31958,-3.11667 9.20499,-5.96828 3.94182,-3.89568 6.23854,-8.09262 7.457,-13.62573 0.46296,-2.10234 0.55124,-3.92923 0.74837,-15.60892 0.10336,-6.12371 0.12231,-17.70322 0.0829,-27.24878 z" /><path
           id="path12"
           style="fill:#f9d415;fill-opacity:1"
           d="m 16.48358,156.48815 c 0.001,4.16826 0.01286,8.98375 0.03475,14.01862 0.09989,22.96595 0.163427,26.18433 0.558607,28.1602 1.51003,7.55014 5.308642,13.53519 11.070572,17.44243 2.12439,1.44059 6.033441,3.18163 8.804071,3.92094 2.56065,0.68329 2.961913,0.71102 12.436353,0.88736 4.409959,0.0818 19.773229,0.11517 31.811189,0.0962 v -12.27866 h -11.9018 c -30.21798,-0.003 -28.470308,0.0923 -32.206758,-1.75333 -2.55879,-1.2639 -5.586782,-4.23896 -6.828902,-6.7113 -1.73168,-3.44673 -1.645789,-1.95831 -1.820149,-31.88068 -0.02482,-4.25856 -0.04901,-8.29888 -0.07216,-11.9018 z" /><path
           id="path13"
           style="fill:#f9d415;fill-opacity:1"
           d="M 121.56849,51.590333 V 64.04005 l 12.42031,0.03207 27.84749,0.07484 1.64642,0.614735 c 4.8454,1.81156 8.49178,5.723482 10.03621,10.760532 0.46033,1.50076 0.4861,3.065831 0.4517,28.641293 l -0.016,11.95526 h 12.32677 c -0.003,-4.41673 -0.0222,-9.64672 -0.0588,-15.06635 -0.1378,-20.403828 -0.23301,-24.833829 -0.57197,-26.620689 -1.84727,-9.73801 -8.2782,-17.42312 -17.48252,-20.88762 -2.89629,-1.09016 -5.25195,-1.465956 -10.69906,-1.710566 -3.71269,-0.166736 -22.33877,-0.260614 -35.90051,-0.243222 z" /><path
           id="path20"
           style="fill:#f9d415;fill-opacity:1"
           d="m 81.199118,51.611716 c -4.11046,-3.96e-4 -8.854046,0.0094 -13.820842,0.0294 -25.09431,0.10102 -26.005294,0.123876 -28.309874,0.654826 -1.30969,0.30173 -3.373766,0.911512 -4.586456,1.357762 -9.50979,3.4995 -16.157653,11.958376 -17.482523,22.240036 -0.218517,1.695824 -0.334979,24.97085 -0.283313,40.22504 h 11.928528 l 0.03207,-12.21986 0.07216,-27.31828 0.710954,-1.77204 c 2.06269,-5.14433 6.360416,-9.128651 11.209556,-10.391691 1.34413,-0.35009 5.205259,-0.40626 28.750879,-0.40626 H 81.19911 Z" /></g></g><g
       id="g7"
       transform="translate(-221.57226,-119.97725)"><path
         style="fill:#ff0000;stroke:#f9d415;stroke-width:8.79512;stroke-linecap:round;stroke-linejoin:round;stroke-opacity:1"
         d="M 101.44294,63.857525 43.48058,121.81987"
         id="path3" /><path
         style="fill:#ff0000;stroke:#f9d415;stroke-width:8.79512;stroke-linecap:round;stroke-linejoin:round;stroke-opacity:1"
         d="m 101.65147,63.857525 57.96236,57.962345"
         id="path4" /></g><g
       id="g8"
       transform="translate(-216.99702,113.4412)"><path
         style="fill:#ff0000;stroke:#f9d415;stroke-width:8.79512;stroke-linecap:round;stroke-linejoin:round;stroke-opacity:1"
         d="M 101.11614,208.7494 43.15378,150.78706"
         id="path5" /><path
         style="fill:#ff0000;stroke:#f9d415;stroke-width:8.79512;stroke-linecap:round;stroke-linejoin:round;stroke-opacity:1"
         d="m 101.32467,208.7494 57.96236,-57.96234"
         id="path6" /></g></g><metadata
     id="metadata1"><rdf:RDF><cc:Work
         rdf:about=""><dc:creator><cc:Agent><dc:title>Alessandro Gagliano</dc:title></cc:Agent></dc:creator><dc:title>Ansvil Logo</dc:title><dc:date>2025-05-26</dc:date></cc:Work></rdf:RDF></metadata></svg>
