<?xml version="1.0" encoding="UTF-8" standalone="no"?>
<!-- Created with Inkscape (http://www.inkscape.org/) -->

<svg
   width="128"
   height="128"
   viewBox="0 0 175.162 175.162"
   version="1.1"
   id="svg1"
   xml:space="preserve"
   sodipodi:docname="logo-srv.svg"
   inkscape:version="1.4.2 (ebf0e940d0, 2025-05-08)"
   inkscape:export-filename="logo.svg"
   inkscape:export-xdpi="96"
   inkscape:export-ydpi="96"
   xmlns:inkscape="http://www.inkscape.org/namespaces/inkscape"
   xmlns:sodipodi="http://sodipodi.sourceforge.net/DTD/sodipodi-0.dtd"
   xmlns="http://www.w3.org/2000/svg"
   xmlns:svg="http://www.w3.org/2000/svg"
   xmlns:rdf="http://www.w3.org/1999/02/22-rdf-syntax-ns#"
   xmlns:cc="http://creativecommons.org/ns#"
   xmlns:dc="http://purl.org/dc/elements/1.1/"><sodipodi:namedview
     id="namedview1"
     pagecolor="#505050"
     bordercolor="#ffffff"
     borderopacity="1"
     inkscape:showpageshadow="0"
     inkscape:pageopacity="0"
     inkscape:pagecheckerboard="1"
     inkscape:deskcolor="#505050"
     inkscape:zoom="5.921875"
     inkscape:cx="54.881266"
     inkscape:cy="52.686016"
     inkscape:window-width="1920"
     inkscape:window-height="964"
     inkscape:window-x="0"
     inkscape:window-y="0"
     inkscape:window-maximized="1"
     inkscape:current-layer="g23" /><title
     id="title1">Ansvil Logo</title><defs
     id="defs1" /><g
     id="layer1"
     transform="translate(-13.802802,-48.722462)"><rect
       style="fill:#1a1a1a;fill-opacity:1;stroke:none;stroke-width:0.58619;stroke-linejoin:round;stroke-dasharray:none;paint-order:stroke fill markers"
       id="rect6"
       width="158.74057"
       height="158.74057"
       x="22.013519"
       y="56.933182"
       rx="26.017305"
       ry="26.017305" /><g
       id="g20"
       transform="translate(-5.617746,10.084193)"><g
         id="g23"><path
           style="font-variation-settings:'wght' 400;fill:#f9d415;fill-opacity:1;stroke:none;stroke-width:1.85741;stroke-linejoin:round;stroke-dasharray:none;paint-order:stroke fill markers"
           id="path28-1"
           d="m 63.681509,175.36883 c 6.222669,-16.59538 12.222215,-33.26763 18.150526,-49.97284 5.590358,-15.59352 10.284363,-31.518819 16.646549,-46.82758 1.830316,-4.393072 -4.140137,-3.016017 -10.201742,-3.016017 -1.314606,0 -1.578073,1.394738 -1.888498,2.553278 4.675783,19.483372 10.52151,38.660349 16.345576,57.823919 3.79561,12.01388 7.72126,23.99384 11.96254,35.85919 3.30874,12.15639 22.86877,1.87091 22.88718,1.71737 0.11813,-0.68579 -20.68922,-6.69221 -20.9127,0.95068 1.91755,-0.0281 4.74237,7.90358 21.10419,-1.04131 2.77504,-5.15192 2.70466,-5.53423 4.57663,-8.77658 5.52547,-11.18881 6.52829,-13.58576 19.53185,-31.82792 -7.17418,1.05634 -11.44172,2.98973 -14.48243,5.31598 -7.10598,5.43632 -15.4818,15.54811 -24.71032,25.34241 -2.29278,3.11972 -5.25149,6.12663 -6.35706,9.88658 -0.42382,7.78066 17.80754,0.45809 20.79367,0.38476 -3.01213,-6.91721 -21.57937,-0.65332 -20.84086,0.37417 1.26454,-0.0241 19.98166,1.15873 20.3688,-3.23291 -2.69331,-1.84678 -10.8988,-23.38627 -15.20077,-35.54474 -6.66105,-18.98831 -12.47032,-38.268586 -18.03662,-57.604065 -0.32393,-1.289938 -1.23563,-2.155327 -2.48351,-2.61541 -1.075862,-0.39665 -16.155613,-1.448383 -15.861738,3.063773 -2.846056,15.922385 -7.595284,31.454692 -12.27846,46.909902 -5.885849,17.03172 -12.578148,33.72312 -20.674826,49.83728 z"
           sodipodi:nodetypes="cccsccccccccscccccccscccc" /><path
           style="font-variation-settings:'wght' 400;fill:#f9d415;fill-opacity:1;stroke:none;stroke-width:1.85741;stroke-linejoin:round;stroke-dasharray:none;paint-order:stroke fill markers"
           id="path7"
           d="m 72.875689,139.46903 c 11.965063,-5.23513 23.753738,-10.76995 36.048121,-15.21291 5.52096,-2.06651 11.21625,-3.64595 16.75513,-5.65669 4.03215,-1.9782 -7.63875,-1.30768 -10.18222,-1.60873 l -0.94572,0.0262 v 0 c -2.10705,-0.19255 -8.03809,-2.45368 -10.83664,-0.89796 -3.60146,2.55035 -7.690699,4.27602 -11.67306,6.12814 -11.448345,5.28079 -25.367959,10.14617 -36.772429,15.51816 z" /></g></g><g
       id="g1"
       transform="translate(0.001317,-2.1577094e-4)"><path
         id="path7-3"
         style="fill:#f9d415;fill-opacity:1"
         d="m 174.09891,156.48815 0.0214,11.22291 c 0.0373,19.06529 -0.0352,27.16496 -0.25124,28.36601 -0.16631,0.92456 -0.76654,2.67516 -1.3337,3.88886 -1.95085,4.17473 -6.04905,7.38746 -10.69906,8.38445 -1.57731,0.33819 -5.82654,0.39624 -28.6413,0.39824 h -11.6265 v 12.13166 l 12.64215,-0.0401 c 31.24895,-0.0986 29.34951,0.004 34.43584,-1.90033 3.58188,-1.34136 6.31958,-3.11667 9.20499,-5.96828 3.94182,-3.89568 6.23854,-8.09262 7.457,-13.62573 0.46296,-2.10234 0.55124,-3.92923 0.74837,-15.60892 0.10336,-6.12371 0.12231,-17.70322 0.0829,-27.24878 z" /><path
         id="path11"
         style="fill:#f9d415;fill-opacity:1"
         d="m 16.48358,156.48815 c 0.001,4.16826 0.01286,8.98375 0.03475,14.01862 0.09989,22.96595 0.163427,26.18433 0.558607,28.1602 1.51003,7.55014 5.308642,13.53519 11.070572,17.44243 2.12439,1.44059 6.033441,3.18163 8.804071,3.92094 2.56065,0.68329 2.961913,0.71102 12.436353,0.88736 4.409959,0.0818 19.773229,0.11517 31.811189,0.0962 v -12.27866 h -11.9018 c -30.21798,-0.003 -28.470308,0.0923 -32.206758,-1.75333 -2.55879,-1.2639 -5.586782,-4.23896 -6.828902,-6.7113 -1.73168,-3.44673 -1.645789,-1.95831 -1.820149,-31.88068 -0.02482,-4.25856 -0.04901,-8.29888 -0.07216,-11.9018 z" /><path
         id="path14"
         style="fill:#f9d415;fill-opacity:1"
         d="M 121.56849,51.590333 V 64.04005 l 12.42031,0.03207 27.84749,0.07484 1.64642,0.614735 c 4.8454,1.81156 8.49178,5.723482 10.03621,10.760532 0.46033,1.50076 0.4861,3.065831 0.4517,28.641293 l -0.016,11.95526 h 12.32677 c -0.003,-4.41673 -0.0222,-9.64672 -0.0588,-15.06635 -0.1378,-20.403828 -0.23301,-24.833829 -0.57197,-26.620689 -1.84727,-9.73801 -8.2782,-17.42312 -17.48252,-20.88762 -2.89629,-1.09016 -5.25195,-1.465956 -10.69906,-1.710566 -3.71269,-0.166736 -22.33877,-0.260614 -35.90051,-0.243222 z" /><path
         id="path15"
         style="fill:#f9d415;fill-opacity:1"
         d="m 81.199118,51.611716 c -4.11046,-3.96e-4 -8.854046,0.0094 -13.820842,0.0294 -25.09431,0.10102 -26.005294,0.123876 -28.309874,0.654826 -1.30969,0.30173 -3.373766,0.911512 -4.586456,1.357762 -9.50979,3.4995 -16.157653,11.958376 -17.482523,22.240036 -0.218517,1.695824 -0.334979,24.97085 -0.283313,40.22504 h 11.928528 l 0.03207,-12.21986 0.07216,-27.31828 0.710954,-1.77204 c 2.06269,-5.14433 6.360416,-9.128651 11.209556,-10.391691 1.34413,-0.35009 5.205259,-0.40626 28.750879,-0.40626 H 81.19911 Z" /></g></g><metadata
     id="metadata1"><rdf:RDF><cc:Work
         rdf:about=""><dc:creator><cc:Agent><dc:title>Alessandro Gagliano</dc:title></cc:Agent></dc:creator><dc:title>Ansvil Logo</dc:title><dc:date>2025-05-26</dc:date></cc:Work></rdf:RDF></metadata><g
     id="g22"
     transform="translate(125.49225)"><g
       id="g7"
       transform="translate(-365.97548,-48.722462)"><rect
         style="fill:#1a1a1a;fill-opacity:1;stroke:none;stroke-width:0.58619;stroke-linejoin:round;stroke-dasharray:none;paint-order:stroke fill markers"
         id="rect1"
         width="158.74057"
         height="158.74057"
         x="22.013519"
         y="56.933182"
         rx="26.017305"
         ry="26.017305" /><g
         id="g4"
         transform="translate(0.001317,-2.1577094e-4)"><path
           id="path1"
           style="fill:#f9d415;fill-opacity:1"
           d="m 174.09891,156.48815 0.0214,11.22291 c 0.0373,19.06529 -0.0352,27.16496 -0.25124,28.36601 -0.16631,0.92456 -0.76654,2.67516 -1.3337,3.88886 -1.95085,4.17473 -6.04905,7.38746 -10.69906,8.38445 -1.57731,0.33819 -5.82654,0.39624 -28.6413,0.39824 h -11.6265 v 12.13166 l 12.64215,-0.0401 c 31.24895,-0.0986 29.34951,0.004 34.43584,-1.90033 3.58188,-1.34136 6.31958,-3.11667 9.20499,-5.96828 3.94182,-3.89568 6.23854,-8.09262 7.457,-13.62573 0.46296,-2.10234 0.55124,-3.92923 0.74837,-15.60892 0.10336,-6.12371 0.12231,-17.70322 0.0829,-27.24878 z" /><path
           id="path2"
           style="fill:#f9d415;fill-opacity:1"
           d="m 16.48358,156.48815 c 0.001,4.16826 0.01286,8.98375 0.03475,14.01862 0.09989,22.96595 0.163427,26.18433 0.558607,28.1602 1.51003,7.55014 5.308642,13.53519 11.070572,17.44243 2.12439,1.44059 6.033441,3.18163 8.804071,3.92094 2.56065,0.68329 2.961913,0.71102 12.436353,0.88736 4.409959,0.0818 19.773229,0.11517 31.811189,0.0962 v -12.27866 h -11.9018 c -30.21798,-0.003 -28.470308,0.0923 -32.206758,-1.75333 -2.55879,-1.2639 -5.586782,-4.23896 -6.828902,-6.7113 -1.73168,-3.44673 -1.645789,-1.95831 -1.820149,-31.88068 -0.02482,-4.25856 -0.04901,-8.29888 -0.07216,-11.9018 z" /><path
           id="path3"
           style="fill:#f9d415;fill-opacity:1"
           d="M 121.56849,51.590333 V 64.04005 l 12.42031,0.03207 27.84749,0.07484 1.64642,0.614735 c 4.8454,1.81156 8.49178,5.723482 10.03621,10.760532 0.46033,1.50076 0.4861,3.065831 0.4517,28.641293 l -0.016,11.95526 h 12.32677 c -0.003,-4.41673 -0.0222,-9.64672 -0.0588,-15.06635 -0.1378,-20.403828 -0.23301,-24.833829 -0.57197,-26.620689 -1.84727,-9.73801 -8.2782,-17.42312 -17.48252,-20.88762 -2.89629,-1.09016 -5.25195,-1.465956 -10.69906,-1.710566 -3.71269,-0.166736 -22.33877,-0.260614 -35.90051,-0.243222 z" /><path
           id="path4"
           style="fill:#f9d415;fill-opacity:1"
           d="m 81.199118,51.611716 c -4.11046,-3.96e-4 -8.854046,0.0094 -13.820842,0.0294 -25.09431,0.10102 -26.005294,0.123876 -28.309874,0.654826 -1.30969,0.30173 -3.373766,0.911512 -4.586456,1.357762 -9.50979,3.4995 -16.157653,11.958376 -17.482523,22.240036 -0.218517,1.695824 -0.334979,24.97085 -0.283313,40.22504 h 11.928528 l 0.03207,-12.21986 0.07216,-27.31828 0.710954,-1.77204 c 2.06269,-5.14433 6.360416,-9.128651 11.209556,-10.391691 1.34413,-0.35009 5.205259,-0.40626 28.750879,-0.40626 H 81.19911 Z" /></g><g
         id="g6"
         transform="matrix(1.8574964,0,0,1.8574964,-276.44151,151.78551)"
         style="fill:#f9d415;fill-opacity:1;stroke-width:0.999954;stroke-dasharray:none"><path
           style="font-variation-settings:'wght' 400;fill:#f9d415;fill-opacity:1;stroke:none;stroke-width:0.999954;stroke-linejoin:round;stroke-dasharray:none;paint-order:stroke fill markers"
           id="path5"
           d="m 176.36916,18.12521 c 3.35003,-8.9342703 6.57994,-17.90993701 9.7715,-26.9033281 3.00962,-8.3949169 5.53668,-16.9684459 8.96182,-25.2100549 0.98537,-2.365042 -2.22888,-1.623701 -5.4922,-1.623701 -0.70773,0 -0.84957,0.750875 -1.01669,1.374585 2.51725,10.489051 5.66435,20.813148 8.79979,31.1300224 2.0434,6.4677819 4.15681,12.9172995 6.44014,19.3051186 1.78129,6.544503 12.31161,1.007222 12.32152,0.924564 0.0636,-0.369203 -11.13823,-3.602808 -11.25854,0.511807 1.03233,-0.01515 2.5531,4.254963 11.36163,-0.560597 0.42097,-0.796602 0.79703,-2.011614 1.14461,-2.585662 0.43394,-0.71665 0.87951,-1.426189 1.31926,-2.139286 3.91936,-5.5542865 8.88858,-10.2063017 14.00809,-14.627939 0.38008,-0.3216215 3.70898,-2.7381914 3.90924,-3.1911448 0.36371,-0.8226795 -3.0143,-1.2887404 -3.14631,-1.3144235 -0.72079,-0.1295493 -1.38902,-0.1742679 -2.08029,-0.2228796 -1.73642,0.00743 -4.0271,-0.2223929 -5.66521,0.5927672 -1.00677,0.5009938 -2.67844,2.4619354 -3.47876,3.2622569 -4.93817,4.7334857 -9.94104,9.4390817 -14.13138,14.8717348 -1.23434,1.679524 -2.82719,3.298325 -3.42238,5.322525 -0.22817,4.188796 9.58685,0.246624 11.19446,0.207142 -1.62161,-3.723939 -11.61745,-0.351717 -11.21987,0.201438 0.68078,-0.01303 10.75731,0.623811 10.96573,-1.740471 -1.44997,-0.994229 -5.86747,-12.5902037 -8.18347,-19.1358207 -3.58604,-10.2225293 -6.71351,-20.6022463 -9.71018,-31.0116693 -0.17439,-0.694452 -0.66521,-1.16034 -1.33702,-1.408031 -0.5792,-0.213545 -8.69752,-0.779757 -8.53931,1.649411 -1.5322,8.571956 -4.08899,16.933911 -6.61022,25.2543672 -3.1687,9.16917498 -6.77156,18.1551419 -11.13048,26.8303418 z" /><path
           style="font-variation-settings:'wght' 400;fill:#f9d415;fill-opacity:1;stroke:none;stroke-width:0.999954;stroke-linejoin:round;stroke-dasharray:none;paint-order:stroke fill markers"
           id="path6"
           d="m 182.3286,3.3559677 c 6.4415,-2.81837386 12.78804,-5.7980984 19.40683,-8.1900056 2.97226,-1.1125158 6.03837,-1.9628313 9.02028,-3.0453238 2.17074,-1.0649823 -4.11239,-0.7040073 -5.48169,-0.8660731 l -0.50914,0.014088 v 0 c -1.13435,-0.1036587 -4.32738,-1.3209572 -5.834,-0.4834168 -1.93888,1.3729943 -4.14036,2.302027 -6.2843,3.2991357 -6.16332,2.8429648 -13.65707,5.46227912 -19.79677,8.3543367 z" /></g></g></g><g
     id="g21"
     transform="translate(70.589391,81.047079)"><rect
       style="fill:#1a1a1a;fill-opacity:1;stroke:none;stroke-width:0.58619;stroke-linejoin:round;stroke-dasharray:none;paint-order:stroke fill markers"
       id="rect16"
       width="158.74057"
       height="158.74057"
       x="-291.0751"
       y="-296.01013"
       rx="26.017305"
       ry="26.017305" /><g
       id="g19"
       transform="translate(-313.08731,-352.9435)"><path
         id="path16"
         style="fill:#f9d415;fill-opacity:1"
         d="m 174.09891,156.48815 0.0214,11.22291 c 0.0373,19.06529 -0.0352,27.16496 -0.25124,28.36601 -0.16631,0.92456 -0.76654,2.67516 -1.3337,3.88886 -1.95085,4.17473 -6.04905,7.38746 -10.69906,8.38445 -1.57731,0.33819 -5.82654,0.39624 -28.6413,0.39824 h -11.6265 v 12.13166 l 12.64215,-0.0401 c 31.24895,-0.0986 29.34951,0.004 34.43584,-1.90033 3.58188,-1.34136 6.31958,-3.11667 9.20499,-5.96828 3.94182,-3.89568 6.23854,-8.09262 7.457,-13.62573 0.46296,-2.10234 0.55124,-3.92923 0.74837,-15.60892 0.10336,-6.12371 0.12231,-17.70322 0.0829,-27.24878 z" /><path
         id="path17"
         style="fill:#f9d415;fill-opacity:1"
         d="m 16.48358,156.48815 c 0.001,4.16826 0.01286,8.98375 0.03475,14.01862 0.09989,22.96595 0.163427,26.18433 0.558607,28.1602 1.51003,7.55014 5.308642,13.53519 11.070572,17.44243 2.12439,1.44059 6.033441,3.18163 8.804071,3.92094 2.56065,0.68329 2.961913,0.71102 12.436353,0.88736 4.409959,0.0818 19.773229,0.11517 31.811189,0.0962 v -12.27866 h -11.9018 c -30.21798,-0.003 -28.470308,0.0923 -32.206758,-1.75333 -2.55879,-1.2639 -5.586782,-4.23896 -6.828902,-6.7113 -1.73168,-3.44673 -1.645789,-1.95831 -1.820149,-31.88068 -0.02482,-4.25856 -0.04901,-8.29888 -0.07216,-11.9018 z" /><path
         id="path18"
         style="fill:#f9d415;fill-opacity:1"
         d="M 121.56849,51.590333 V 64.04005 l 12.42031,0.03207 27.84749,0.07484 1.64642,0.614735 c 4.8454,1.81156 8.49178,5.723482 10.03621,10.760532 0.46033,1.50076 0.4861,3.065831 0.4517,28.641293 l -0.016,11.95526 h 12.32677 c -0.003,-4.41673 -0.0222,-9.64672 -0.0588,-15.06635 -0.1378,-20.403828 -0.23301,-24.833829 -0.57197,-26.620689 -1.84727,-9.73801 -8.2782,-17.42312 -17.48252,-20.88762 -2.89629,-1.09016 -5.25195,-1.465956 -10.69906,-1.710566 -3.71269,-0.166736 -22.33877,-0.260614 -35.90051,-0.243222 z" /><path
         id="path19"
         style="fill:#f9d415;fill-opacity:1"
         d="m 81.199118,51.611716 c -4.11046,-3.96e-4 -8.854046,0.0094 -13.820842,0.0294 -25.09431,0.10102 -26.005294,0.123876 -28.309874,0.654826 -1.30969,0.30173 -3.373766,0.911512 -4.586456,1.357762 -9.50979,3.4995 -16.157653,11.958376 -17.482523,22.240036 -0.218517,1.695824 -0.334979,24.97085 -0.283313,40.22504 h 11.928528 l 0.03207,-12.21986 0.07216,-27.31828 0.710954,-1.77204 c 2.06269,-5.14433 6.360416,-9.128651 11.209556,-10.391691 1.34413,-0.35009 5.205259,-0.40626 28.750879,-0.40626 H 81.19911 Z" /></g><g
       id="g30"
       transform="matrix(1.8574964,0,0,1.8574964,-378.41557,-196.58254)"
       style="fill:#f9d415;fill-opacity:1;stroke-width:0.999954;stroke-dasharray:none"><path
         style="font-variation-settings:'wght' 400;fill:#f9d415;fill-opacity:1;stroke:none;stroke-width:0.999954;stroke-linejoin:round;stroke-dasharray:none;paint-order:stroke fill markers"
         id="path28"
         d="m 61.658098,15.662089 c 3.35003,-8.9342703 6.57994,-17.909937 9.7715,-26.903328 3.00962,-8.394917 5.53668,-16.968446 8.96182,-25.210055 0.98537,-2.365042 -2.22888,-1.623701 -5.4922,-1.623701 -0.70773,0 -0.84957,0.750875 -1.01669,1.374585 2.51725,10.489051 5.66435,20.813148 8.79979,31.1300224 2.0434,6.46778193 4.15681,12.9172995 6.44014,19.3051186 1.78129,6.544503 12.311612,1.007222 12.321522,0.924564 0.0636,-0.369203 -11.138232,-3.602808 -11.258542,0.511807 1.03233,-0.01515 2.5531,4.254963 11.361632,-0.560597 1.49397,-2.773575 1.66943,-2.975498 2.46387,-4.724948 3.73708,-6.4728192 5.21859,-10.8905369 10.3381,-15.3121742 0.38008,-0.3216215 4.4001,-3.2569414 3.90924,-3.1911448 -11.44291,1.1942645 -17.68554,9.13302473 -24.831962,17.873691 -1.23434,1.679524 -2.82719,3.298325 -3.42238,5.322525 -0.22817,4.188796 9.58685,0.246624 11.194462,0.207142 -1.621612,-3.723939 -11.617452,-0.351717 -11.219872,0.201438 0.68078,-0.01303 10.757312,0.623811 10.965732,-1.740471 -1.449972,-0.994229 -5.867472,-12.59020367 -8.183472,-19.1358207 -3.58604,-10.2225293 -6.71351,-20.6022463 -9.71018,-31.0116693 -0.17439,-0.694452 -0.66521,-1.16034 -1.33702,-1.408031 -0.5792,-0.213545 -8.69752,-0.779757 -8.53931,1.649411 -1.5322,8.571956 -4.08899,16.933911 -6.61022,25.254367 -3.1687,9.1691752 -6.77156,18.1551421 -11.13048,26.830342 z"
         sodipodi:nodetypes="cccsccccccccscccccccscccc" /><path
         style="font-variation-settings:'wght' 400;fill:#f9d415;fill-opacity:1;stroke:none;stroke-width:0.999954;stroke-linejoin:round;stroke-dasharray:none;paint-order:stroke fill markers"
         id="path29"
         d="m 67.617538,0.89284673 c 6.4415,-2.81837383 12.78804,-5.79809843 19.40683,-8.19000563 2.97226,-1.1125158 6.03837,-1.9628313 9.02028,-3.0453241 2.17074,-1.064982 -4.11239,-0.704007 -5.48169,-0.866073 l -0.50914,0.01409 v 0 c -1.13435,-0.103658 -4.32738,-1.320957 -5.834,-0.483417 -1.93888,1.372995 -4.14036,2.3020274 -6.2843,3.2991361 -6.16332,2.8429648 -13.65707,5.4622791 -19.79677,8.35433673 z" /></g></g></svg>
